<?xml version="1.0" standalone="no"?>
<!DOCTYPE svg PUBLIC "-//W3C//DTD SVG 1.1//EN" "http://www.w3.org/Graphics/SVG/1.1/DTD/svg11.dtd" >
<svg xmlns="http://www.w3.org/2000/svg" xmlns:xlink="http://www.w3.org/1999/xlink" version="1.1">
<metadata>
Created by FontForge 20170731 at Sat Aug 14 23:45:55 2021
 By Aleksey,,,
HTF Gotham Copr. 2001 The Hoefler Type Foundry, Inc. Info: www.typography.com
</metadata>
<defs>
<font id="GothamHTF-LightCondensed" horiz-adv-x="1024" >
  <font-face 
    font-family="Gotham HTF Light Condensed"
    font-weight="300"
    font-stretch="condensed"
    units-per-em="2048"
    panose-1="0 0 0 0 0 0 0 0 0 0"
    ascent="1638"
    descent="-410"
    x-height="1075"
    cap-height="1434"
    bbox="-41 -324 1778 1794"
    underline-thickness="40"
    underline-position="-312"
    unicode-range="U+0020-FB02"
  />
<missing-glyph 
 />
    <glyph glyph-name=".notdef" 
 />
    <glyph glyph-name=".null" horiz-adv-x="0" 
 />
    <glyph glyph-name="nonmarkingreturn" horiz-adv-x="682" 
 />
    <glyph glyph-name="space" unicode=" " horiz-adv-x="337" 
 />
    <glyph glyph-name="exclam" unicode="!" horiz-adv-x="393" 
d="M174 375l-31 915v144h107v-144l-31 -915h-45zM135 0v168h123v-168h-123z" />
    <glyph glyph-name="quotedbl" unicode="&#x22;" horiz-adv-x="473" 
d="M305 938v496h103v-19l-64 -477h-39zM90 938v496h103v-19l-64 -477h-39z" />
    <glyph glyph-name="numbersign" unicode="#" horiz-adv-x="794" 
d="M158 0l30 391h-143l-2 82h150l38 498h-145l-2 82h154l28 381h70l-29 -381h223l29 381h70l-29 -381h150l2 -82h-158l-37 -498h152l2 -82h-158l-29 -391h-73l30 391h-221l-29 -391h-73zM264 473h221l39 498h-223z" />
    <glyph glyph-name="dollar" unicode="$" horiz-adv-x="696" 
d="M309 -12q-125 0 -248 69v95q69 -45 126 -63.5t122 -20.5v645q-129 82 -191.5 172.5t-62.5 230.5v4q0 124 70.5 211t183.5 107v135h70v-129q104 -3 213 -70v-94q-124 79 -213 84v-586q134 -92 195 -194t61 -230v-6q0 -137 -69 -234t-187 -120v-197h-70v191zM309 1358
q-77 -19 -122.5 -83.5t-45.5 -154.5v-4q0 -74 23 -131.5t56.5 -93t88.5 -76.5v543zM379 74q85 21 127.5 96t42.5 180v4q0 197 -170 320v-600z" />
    <glyph glyph-name="percent" unicode="%" 
d="M266 764q-89 0 -150 89t-61 243v16q0 154 61 243t150 89t150 -89t61 -243v-16q0 -154 -61 -243t-150 -89zM154 0l641 1434h75l-641 -1434h-75zM758 -10q-89 0 -150 89t-61 243v16q0 154 61 243t150 89t150 -89t61 -243v-16q0 -154 -61 -243t-150 -89zM266 842
q60 0 97.5 68.5t37.5 185.5v16q0 117 -37.5 185.5t-97.5 68.5t-97.5 -68.5t-37.5 -185.5v-16q0 -117 37.5 -185.5t97.5 -68.5zM758 68q60 0 97.5 68.5t37.5 185.5v16q0 117 -37.5 185.5t-97.5 68.5t-97.5 -68.5t-37.5 -185.5v-16q0 -117 37.5 -185.5t97.5 -68.5z" />
    <glyph glyph-name="ampersand" unicode="&#x26;" horiz-adv-x="839" 
d="M338 -14q-127 0 -205 102.5t-78 243.5v14q0 256 230 461q-78 133 -110 212.5t-32 151.5v11q0 106 68.5 187t173.5 81q107 0 169 -77.5t62 -178.5v-12q0 -107 -55.5 -197.5t-171.5 -196.5l232 -428q40 128 65 326l78 -12q-25 -212 -92 -395l141 -250l-72 -43l-112 209
q-116 -209 -291 -209zM350 852q180 154 180 330v6q0 76 -39.5 130t-105.5 54q-70 0 -113 -55t-43 -133v-4q0 -66 26 -137t95 -191zM342 68q78 0 135 51.5t107 150.5l-260 473q-179 -159 -179 -391v-12q0 -116 55 -194t142 -78z" />
    <glyph glyph-name="quotesingle" unicode="'" horiz-adv-x="237" 
d="M90 938v496h103v-19l-64 -477h-39z" />
    <glyph glyph-name="parenleft" unicode="(" horiz-adv-x="481" 
d="M451 -281q-172 122 -274.5 344.5t-102.5 530.5t102.5 530t274.5 344v-71q-291 -277 -291 -803t291 -803v-72z" />
    <glyph glyph-name="parenright" unicode=")" horiz-adv-x="481" 
d="M31 -281v72q291 277 291 803t-291 803v71q172 -122 274.5 -344t102.5 -530t-102.5 -530.5t-274.5 -344.5z" />
    <glyph glyph-name="asterisk" unicode="*" horiz-adv-x="569" 
d="M248 885l16 237l-170 -127l-39 64l193 102l-193 103l39 63l170 -127l-16 238h74l-17 -238l170 127l39 -63l-192 -103l192 -102l-39 -64l-170 127l17 -237h-74z" />
    <glyph glyph-name="plus" unicode="+" horiz-adv-x="817" 
d="M362 324v352h-307v90h307v352h93v-352h307v-90h-307v-352h-93z" />
    <glyph glyph-name="comma" unicode="," horiz-adv-x="307" 
d="M66 -211l-25 51q60 26 84.5 63.5t19.5 96.5h-55v168h127v-145q0 -94 -32.5 -144t-118.5 -90z" />
    <glyph glyph-name="hyphen" unicode="-" horiz-adv-x="548" 
d="M82 565v82h385v-82h-385z" />
    <glyph glyph-name="period" unicode="." horiz-adv-x="307" 
d="M90 0v168h127v-168h-127z" />
    <glyph glyph-name="slash" unicode="/" horiz-adv-x="532" 
d="M-8 -201l446 1774h78l-446 -1774h-78z" />
    <glyph glyph-name="zero" unicode="0" horiz-adv-x="761" 
d="M381 -16q-141 0 -221 174t-80 540v33q0 186 22 326t62 225t94.5 126.5t122.5 41.5t122 -41t95 -125.5t62.5 -223.5t21.5 -325v-33q0 -186 -22 -325.5t-62 -224.5t-94.5 -126.5t-122.5 -41.5zM381 66q98 0 154.5 160t56.5 472v33q0 313 -56.5 475t-154.5 162t-154.5 -160
t-56.5 -473v-33q0 -313 56.5 -474.5t154.5 -161.5z" />
    <glyph glyph-name="one" unicode="1" horiz-adv-x="419" 
d="M197 0v1323l-150 -88v102l158 97h80v-1434h-88z" />
    <glyph glyph-name="two" unicode="2" horiz-adv-x="673" 
d="M51 0v59l346 707q52 109 76.5 188.5t24.5 165.5q0 106 -55 169t-146 63q-106 0 -209 -66v96q100 60 213 60q131 0 210 -86.5t79 -225.5v-8q0 -96 -28.5 -184t-92.5 -219l-307 -631h440v-88h-551z" />
    <glyph glyph-name="three" unicode="3" horiz-adv-x="634" 
d="M229 -8q-94 0 -180 35v88q86 -39 184 -39q102 0 176 94.5t74 249.5v12q0 141 -77.5 214t-227.5 87v64l283 544h-412v93h520v-60l-295 -571q63 -12 115 -38t96 -69t68.5 -109.5t24.5 -150.5v-14q0 -192 -102 -311t-247 -119z" />
    <glyph glyph-name="four" unicode="4" horiz-adv-x="702" 
d="M467 0v330h-428v69l436 1045h76v-1036h113v-78h-113v-330h-84zM123 408h344v829z" />
    <glyph glyph-name="five" unicode="5" horiz-adv-x="671" 
d="M250 -10q-94 0 -170 37v88q84 -41 172 -41q109 0 182.5 106t73.5 271v8q0 163 -64 240t-161 77q-68 0 -140 -28l-61 40l29 646h434v-88h-357l-22 -508q63 24 125 24q133 0 220 -101t87 -300v-8q0 -203 -99 -333t-249 -130z" />
    <glyph glyph-name="six" unicode="6" horiz-adv-x="724" 
d="M371 -18q-47 0 -86.5 17t-77.5 60t-64.5 111t-42.5 176.5t-16 249.5v61q0 207 26 360.5t73.5 245.5t110.5 136.5t142 44.5q70 0 137 -29v-94q-72 35 -143 35q-116 0 -183.5 -149.5t-74.5 -422.5q103 103 213 103q117 0 197 -108t80 -322v-8q0 -207 -83.5 -337
t-207.5 -130zM373 61q92 0 147 110.5t55 274.5v9q0 170 -57 260t-141 90q-91 0 -205 -111v-112q0 -147 17 -253t47 -162t63.5 -81t73.5 -25z" />
    <glyph glyph-name="seven" unicode="7" horiz-adv-x="630" 
d="M139 0l332 1346h-405v88h493v-78l-332 -1356h-88z" />
    <glyph glyph-name="eight" unicode="8" horiz-adv-x="671" 
d="M336 -16q-126 0 -204.5 106t-78.5 275v14q0 125 50.5 222t136.5 138q-75 44 -118.5 132t-43.5 208v13q0 166 74.5 262t183.5 96t183.5 -96t74.5 -262v-13q0 -120 -43.5 -208t-118.5 -132q86 -41 136 -138t50 -222v-14q0 -169 -78 -275t-204 -106zM336 778q74 0 122 90.5
t48 212.5v9q0 126 -47 203t-123 77t-123 -77t-47 -203v-9q0 -122 48 -212.5t122 -90.5zM336 63q88 0 142 86.5t54 219.5v6q0 139 -56 231t-140 92t-140.5 -92t-56.5 -231v-6q0 -132 54.5 -219t142.5 -87z" />
    <glyph glyph-name="nine" unicode="9" horiz-adv-x="724" 
d="M289 -10q-78 0 -158 35v94q77 -41 164 -41q114 0 181.5 145t74.5 410q-100 -103 -211 -103q-55 0 -103.5 25.5t-88 76.5t-62.5 137.5t-23 199.5v8q0 212 83.5 343.5t207.5 131.5q47 0 86.5 -17t77.5 -60t64.5 -111t42.5 -176.5t16 -249.5v-62q0 -207 -26 -360.5
t-73.5 -245.5t-110.5 -136t-142 -44zM348 612q91 0 205 111v129q0 147 -17 253t-47 162t-63.5 80.5t-73.5 24.5q-62 0 -108.5 -53.5t-70 -142t-23.5 -197.5v-8q0 -178 56.5 -268.5t141.5 -90.5z" />
    <glyph glyph-name="colon" unicode=":" horiz-adv-x="327" 
d="M100 907v168h127v-168h-127zM100 0v168h127v-168h-127z" />
    <glyph glyph-name="semicolon" unicode=";" horiz-adv-x="327" 
d="M100 907v168h127v-168h-127zM76 -211l-25 51q60 26 84.5 64t20.5 96h-56v168h127v-145q0 -94 -32.5 -144t-118.5 -90z" />
    <glyph glyph-name="less" unicode="&#x3c;" horiz-adv-x="765" 
d="M659 268l-589 412v82l589 412v-111l-507 -344l507 -340v-111z" />
    <glyph glyph-name="equal" unicode="=" horiz-adv-x="901" 
d="M109 889v84h684v-84h-684zM109 469v84h684v-84h-684z" />
    <glyph glyph-name="greater" unicode="&#x3e;" horiz-adv-x="765" 
d="M106 268v111l508 340l-508 344v111l590 -412v-82z" />
    <glyph glyph-name="question" unicode="?" horiz-adv-x="620" 
d="M221 375l-16 354l10 14q125 48 192.5 129t67.5 215v9q0 119 -67 190.5t-164 71.5q-91 0 -195 -58v89q94 53 201 53q134 0 224.5 -96t90.5 -242v-12q0 -274 -270 -404l-19 -313h-55zM195 0v168h122v-168h-122z" />
    <glyph glyph-name="at" unicode="@" horiz-adv-x="1298" 
d="M612 -272q-116 0 -213.5 45t-170.5 131t-114.5 222.5t-41.5 309.5q0 159 28 308.5t84 277.5t134 223.5t183.5 150t225.5 54.5q157 0 272 -87.5t171.5 -232t56.5 -327.5q0 -167 -38.5 -315.5t-111 -243t-162.5 -94.5q-81 0 -120 61.5t-27 159.5q-106 -228 -248 -228
q-73 0 -122.5 71t-49.5 185q0 165 47 313.5t124.5 238t162.5 89.5q138 0 166 -202l33 168l80 -17l-103 -526q-12 -65 -12 -137q0 -49 18.5 -81t57.5 -32q71 0 129.5 94.5t88 227.5t29.5 264q0 124 -28 231.5t-82 189.5t-139 129.5t-193 47.5q-115 0 -214 -56t-169 -150
t-120.5 -217t-74.5 -258t-24 -272q0 -321 134 -492t353 -171q94 0 163 22t147 70l28 -45q-88 -53 -161.5 -76.5t-176.5 -23.5zM541 223q70 0 147 107t111 250q18 77 18 157q0 98 -36.5 161t-92.5 63q-70 0 -132 -88t-95 -226q-29 -122 -29 -244q0 -86 29.5 -133t79.5 -47z
" />
    <glyph glyph-name="A" unicode="A" horiz-adv-x="839" 
d="M57 0l314 1440h98l313 -1440h-94l-84 401h-373l-84 -401h-90zM248 483h340l-170 815z" />
    <glyph glyph-name="B" unicode="B" horiz-adv-x="763" 
d="M115 0v1434h184q171 0 277 -99t106 -260v-4q0 -274 -262 -346q132 -30 206 -118t74 -232v-4q0 -173 -119.5 -272t-320.5 -99h-145zM205 764h63q156 0 240 80t84 223v4q0 130 -81 205.5t-216 75.5h-90v-588zM205 82h57q164 0 256 75t92 216v4q0 147 -87 226t-247 79h-71
v-600z" />
    <glyph glyph-name="C" unicode="C" horiz-adv-x="673" 
d="M455 -8q-166 0 -272.5 182.5t-106.5 523.5v37q0 172 31 309t84 222.5t121.5 130.5t146.5 45q74 0 139 -35v-96q-77 45 -139 45q-126 0 -209.5 -164t-83.5 -457v-37q0 -293 83.5 -456.5t209.5 -163.5q72 0 145 47v-92q-67 -41 -149 -41z" />
    <glyph glyph-name="D" unicode="D" horiz-adv-x="819" 
d="M115 0v1434h170q206 0 332 -182t126 -517v-37q0 -335 -126 -516.5t-332 -181.5h-170zM205 82h82q166 0 266 159.5t100 456.5v37q0 296 -102.5 456.5t-267.5 160.5h-78v-1270z" />
    <glyph glyph-name="E" unicode="E" horiz-adv-x="665" 
d="M115 0v1434h487v-82h-397v-588h362v-82h-362v-600h403v-82h-493z" />
    <glyph glyph-name="F" unicode="F" horiz-adv-x="626" 
d="M115 0v1434h469v-82h-379v-609h344v-81h-344v-662h-90z" />
    <glyph glyph-name="G" unicode="G" horiz-adv-x="804" 
d="M506 -14q-90 0 -167 45.5t-136 132.5t-93 224t-34 310v37q0 172 35.5 310t96 224t138 131.5t164.5 45.5q95 0 174 -45v-98q-91 57 -176 57q-67 0 -128 -40t-109 -115.5t-76.5 -197t-28.5 -272.5v-37q0 -303 96.5 -466.5t249.5 -163.5q53 0 98 18v565h-213v82h299v-698
q-55 -29 -95 -39t-95 -10z" />
    <glyph glyph-name="H" unicode="H" horiz-adv-x="851" 
d="M115 0v1434h90v-672h442v672h90v-1434h-90v680h-442v-680h-90z" />
    <glyph glyph-name="I" unicode="I" horiz-adv-x="348" 
d="M129 0v1434h90v-1434h-90z" />
    <glyph glyph-name="J" unicode="J" horiz-adv-x="473" 
d="M145 -10q-56 0 -104 16v84q11 -5 50 -10.5t52 -5.5q65 0 105.5 43t40.5 127v1190h86v-1192q0 -120 -63 -186t-167 -66z" />
    <glyph glyph-name="K" unicode="K" horiz-adv-x="757" 
d="M115 0v1434h90v-813l397 813h103l-330 -648l370 -786h-98l-323 688l-119 -233v-455h-90z" />
    <glyph glyph-name="L" unicode="L" horiz-adv-x="581" 
d="M115 0v1434h90v-1352h360v-82h-450z" />
    <glyph glyph-name="M" unicode="M" horiz-adv-x="978" 
d="M115 0v1434h110l264 -801l267 801h108v-1434h-86v1235l-284 -834h-9l-284 834v-1235h-86z" />
    <glyph glyph-name="N" unicode="N" horiz-adv-x="860" 
d="M115 0v1434h98l446 -1205v1205h86v-1434h-88l-456 1233v-1233h-86z" />
    <glyph glyph-name="O" unicode="O" horiz-adv-x="831" 
d="M416 -16q-152 0 -246 186t-94 530v33q0 344 94 530.5t246 186.5t246 -186.5t94 -530.5v-33q0 -344 -94 -530t-246 -186zM416 66q110 0 180 165.5t70 468.5v33q0 303 -70 469t-180 166t-180 -166t-70 -469v-33q0 -303 70 -468.5t180 -165.5z" />
    <glyph glyph-name="P" unicode="P" horiz-adv-x="745" 
d="M115 0v1434h178q190 0 301 -121t111 -326v-4q0 -208 -110.5 -331.5t-309.5 -123.5h-80v-528h-90zM205 608h88q154 0 237.5 98.5t83.5 274.5v4q0 173 -87 270t-238 97h-84v-744z" />
    <glyph glyph-name="Q" unicode="Q" horiz-adv-x="831" 
d="M713 -41l-105 133q-82 -108 -192 -108q-152 0 -246 186t-94 530v33q0 344 94 530.5t246 186.5t246 -186.5t94 -530.5v-33q0 -342 -103 -540l123 -148zM416 66q85 0 145 86l-149 176l63 53l125 -156q66 163 66 475v33q0 303 -70 469t-180 166t-180 -166t-70 -469v-33
q0 -303 70 -468.5t180 -165.5z" />
    <glyph glyph-name="R" unicode="R" horiz-adv-x="784" 
d="M115 0v1434h178q190 0 301 -111.5t111 -310.5v-4q0 -148 -65 -252.5t-183 -149.5l274 -606h-106l-260 584q-38 -6 -80 -6h-80v-578h-90zM205 657h88q149 0 235 91.5t86 257.5v4q0 169 -87 255.5t-238 86.5h-84v-695z" />
    <glyph glyph-name="S" unicode="S" horiz-adv-x="681" 
d="M317 -20q-115 0 -247 75v103q143 -92 249 -92q91 0 145 55.5t54 150.5v4q0 88 -40 168.5t-161 243.5q-146 197 -191.5 285t-45.5 184v4q0 126 81 209.5t199 83.5q110 0 218 -63v-103q-118 80 -220 80q-83 0 -135.5 -56t-52.5 -145v-4q0 -79 41.5 -158.5t161.5 -232.5
q133 -168 184 -272t51 -217v-4q0 -135 -82 -217t-209 -82z" />
    <glyph glyph-name="T" unicode="T" horiz-adv-x="606" 
d="M258 0v1352h-233v82h557v-82h-234v-1352h-90z" />
    <glyph glyph-name="U" unicode="U" horiz-adv-x="837" 
d="M420 -18q-143 0 -226 104.5t-83 282.5v1065h90v-1067q0 -145 58.5 -224.5t160.5 -79.5t161.5 79.5t59.5 224.5v1067h90v-1065q0 -178 -84 -282.5t-227 -104.5z" />
    <glyph glyph-name="V" unicode="V" horiz-adv-x="802" 
d="M356 -10l-299 1444h95l251 -1274l252 1274h90l-299 -1444h-90z" />
    <glyph glyph-name="W" unicode="W" horiz-adv-x="1251" 
d="M309 -10l-248 1444h97l194 -1252l234 1252h84l231 -1252l197 1252h92l-248 -1444h-84l-231 1251l-234 -1251h-84z" />
    <glyph glyph-name="X" unicode="X" horiz-adv-x="731" 
d="M41 0l270 756l-243 678h94l200 -580l205 580h90l-239 -670l272 -764h-92l-236 666l-231 -666h-90z" />
    <glyph glyph-name="Y" unicode="Y" horiz-adv-x="720" 
d="M315 0v618l-299 816h99l247 -703l250 703h93l-299 -816v-618h-91z" />
    <glyph glyph-name="Z" unicode="Z" horiz-adv-x="688" 
d="M61 0v53l476 1305h-453v76h547v-52l-475 -1304h475v-78h-570z" />
    <glyph glyph-name="bracketleft" unicode="[" horiz-adv-x="518" 
d="M160 -266v1700h284v-68h-198v-1565h198v-67h-284z" />
    <glyph glyph-name="backslash" unicode="\" horiz-adv-x="532" 
d="M463 -201l-447 1774h78l447 -1774h-78z" />
    <glyph glyph-name="bracketright" unicode="]" horiz-adv-x="518" 
d="M74 -266v67h198v1565h-198v68h284v-1700h-284z" />
    <glyph glyph-name="asciicircum" unicode="^" horiz-adv-x="614" 
d="M129 1092l143 313h70l143 -313h-82l-98 213l-98 -213h-78z" />
    <glyph glyph-name="underscore" unicode="_" horiz-adv-x="925" 
d="M-4 -324v72h934v-72h-934z" />
    <glyph glyph-name="grave" unicode="`" 
d="M571 1208l-184 224l102 53l142 -277h-60z" />
    <glyph glyph-name="a" unicode="a" horiz-adv-x="706" 
d="M303 -18q-108 0 -177 94t-69 237v17q0 153 75.5 248.5t207.5 95.5q93 0 180 -41v135q0 114 -52 176t-153 62q-108 0 -198 -50v84q96 47 202 47q134 0 210.5 -80t76.5 -229v-778h-86v156q-71 -174 -217 -174zM315 57q91 0 148 83.5t57 195.5v215q-91 43 -176 43
q-97 0 -149 -71.5t-52 -188.5v-17q0 -114 45 -187t127 -73z" />
    <glyph glyph-name="b" unicode="b" horiz-adv-x="770" 
d="M420 -16q-77 0 -133.5 61t-91.5 162v-207h-86v1448h86v-580q35 101 91.5 162.5t133.5 61.5q117 0 198.5 -143.5t81.5 -391.5v-39q0 -246 -82 -390t-198 -144zM410 59q87 0 145.5 123.5t58.5 337.5v35q0 214 -58.5 337.5t-145.5 123.5q-88 0 -154 -123.5t-66 -329.5v-51
q0 -206 66 -329.5t154 -123.5z" />
    <glyph glyph-name="c" unicode="c" horiz-adv-x="575" 
d="M393 -14q-65 0 -122.5 32t-104 95.5t-73.5 169t-27 241.5v21q0 135 28 242t74.5 171.5t104 98t120.5 33.5q72 0 129 -37v-95q-64 50 -131 50q-43 0 -84.5 -28t-76.5 -82t-56.5 -144.5t-21.5 -204.5v-29q0 -117 21 -206.5t56.5 -141.5t78.5 -78t91 -26q65 0 123 49v-90
q-57 -41 -129 -41z" />
    <glyph glyph-name="d" unicode="d" horiz-adv-x="770" 
d="M350 -16q-117 0 -198.5 143t-81.5 391v39q0 246 82 390.5t198 144.5q77 0 133.5 -61.5t91.5 -162.5v580h87v-1448h-87v207q-35 -101 -91.5 -162t-133.5 -61zM360 59q88 0 154 123.5t66 329.5v51q0 206 -66 329.5t-154 123.5q-87 0 -145.5 -123.5t-58.5 -337.5v-35
q0 -214 58.5 -337.5t145.5 -123.5z" />
    <glyph glyph-name="e" unicode="e" horiz-adv-x="712" 
d="M408 -14q-144 0 -243 139t-99 393v19q0 267 84 411t210 144q124 0 202.5 -140.5t78.5 -386.5v-63h-489q3 -209 78 -321.5t190 -112.5q50 0 92 14t94 49l10 -88q-58 -33 -102 -45t-106 -12zM152 578h405q0 187 -55.5 310.5t-141.5 123.5q-87 0 -144.5 -113.5t-63.5 -320.5
z" />
    <glyph glyph-name="f" unicode="f" horiz-adv-x="438" 
d="M152 0v995h-111v80h111v125q0 123 53.5 187.5t154.5 64.5q32 0 64 -8v-84q-32 8 -62 8q-124 0 -124 -170v-123h176v-80h-176v-995h-86z" />
    <glyph glyph-name="g" unicode="g" horiz-adv-x="770" 
d="M350 -270q-117 0 -235 43v88q128 -51 239 -51q221 0 221 217v254q-35 -101 -91.5 -162.5t-133.5 -61.5q-114 0 -197 136t-83 372v19q0 233 83 370.5t197 137.5q77 0 133.5 -61.5t91.5 -162.5v207h87v-1044q0 -151 -80.5 -226t-231.5 -75zM360 133q85 0 152.5 119
t67.5 313v19q0 194 -67.5 313t-152.5 119q-84 0 -144 -116.5t-60 -317.5v-15q0 -201 60 -317.5t144 -116.5z" />
    <glyph glyph-name="h" unicode="h" horiz-adv-x="761" 
d="M109 0v1448h86v-530q72 174 221 174q111 0 178.5 -89.5t67.5 -250.5v-752h-87v743q0 133 -45.5 204t-130.5 71q-87 0 -145.5 -81t-58.5 -210v-727h-86z" />
    <glyph glyph-name="i" unicode="i" horiz-adv-x="327" 
d="M117 1305v143h94v-143h-94zM121 0v1075h86v-1075h-86z" />
    <glyph glyph-name="j" unicode="j" horiz-adv-x="342" 
d="M131 1305v143h94v-143h-94zM12 -272q-29 0 -53 12v80q20 -10 41 -10q81 0 108 48.5t27 143.5v1073h86v-1104q0 -48 -10 -88.5t-32 -77t-64.5 -57t-102.5 -20.5z" />
    <glyph glyph-name="k" unicode="k" horiz-adv-x="671" 
d="M109 0v1448h86v-969l309 596h96l-240 -432l263 -643h-95l-219 553l-114 -207v-346h-86z" />
    <glyph glyph-name="l" unicode="l" horiz-adv-x="327" 
d="M121 0v1448h86v-1448h-86z" />
    <glyph glyph-name="m" unicode="m" horiz-adv-x="1204" 
d="M109 0v1075h86v-157q72 174 215 174q151 0 211 -183q81 183 237 183q113 0 179.5 -87.5t66.5 -248.5v-756h-86v748q0 132 -44.5 201t-125.5 69q-85 0 -142 -79.5t-57 -207.5v-731h-86v748q0 132 -44.5 201t-125.5 69q-85 0 -141.5 -79.5t-56.5 -207.5v-731h-86z" />
    <glyph glyph-name="n" unicode="n" horiz-adv-x="761" 
d="M109 0v1075h86v-157q72 174 221 174q111 0 178.5 -89.5t67.5 -250.5v-752h-87v743q0 133 -45.5 204t-130.5 71q-87 0 -145.5 -81t-58.5 -210v-727h-86z" />
    <glyph glyph-name="o" unicode="o" horiz-adv-x="741" 
d="M371 -16q-126 0 -215.5 149.5t-89.5 394.5v19q0 245 90 395t217 150q126 0 214.5 -149.5t88.5 -395.5v-19q0 -245 -89.5 -394.5t-215.5 -149.5zM371 63q93 0 156 128.5t63 336.5v19q0 208 -63 336.5t-156 128.5t-156 -128.5t-63 -336.5v-19q0 -208 63 -336.5t156 -128.5z
" />
    <glyph glyph-name="p" unicode="p" horiz-adv-x="770" 
d="M109 -266v1341h86v-207q35 101 91.5 162.5t133.5 61.5q117 0 198.5 -143.5t81.5 -391.5v-39q0 -246 -82 -390t-198 -144q-77 0 -133.5 61t-91.5 162v-473h-86zM410 59q87 0 145.5 123.5t58.5 337.5v35q0 214 -58.5 337.5t-145.5 123.5q-88 0 -154 -123.5t-66 -329.5v-51
q0 -206 66 -329.5t154 -123.5z" />
    <glyph glyph-name="q" unicode="q" horiz-adv-x="770" 
d="M575 -266v473q-35 -101 -91.5 -162t-133.5 -61q-117 0 -198.5 143t-81.5 391v39q0 246 82 390.5t198 144.5q77 0 133.5 -61.5t91.5 -162.5v207h87v-1341h-87zM360 59q88 0 154 123.5t66 329.5v51q0 206 -66 329.5t-154 123.5q-87 0 -145.5 -123.5t-58.5 -337.5v-35
q0 -214 58.5 -337.5t145.5 -123.5z" />
    <glyph glyph-name="r" unicode="r" horiz-adv-x="479" 
d="M109 0v1075h86v-157q33 80 97 127.5t154 41.5v-92h-4q-108 0 -177.5 -70t-69.5 -204v-721h-86z" />
    <glyph glyph-name="s" unicode="s" horiz-adv-x="571" 
d="M266 -12q-107 0 -215 51v90q116 -61 219 -61q70 0 117 43t47 116v4q0 58 -38.5 121t-131.5 152q-120 114 -165.5 188t-45.5 156v4q0 108 71.5 171.5t172.5 63.5q100 0 178 -34v-90q-89 45 -182 45q-67 0 -110.5 -41.5t-43.5 -110.5v-4q0 -58 36 -112.5t134 -151.5
q117 -116 164 -192t47 -160v-5q0 -110 -75.5 -176.5t-178.5 -66.5z" />
    <glyph glyph-name="t" unicode="t" horiz-adv-x="460" 
d="M332 -8q-191 0 -191 188v815h-102v80h102v303h86v-303h174v-80h-174v-802q0 -67 28.5 -93t84.5 -26q39 0 66 10v-80q-30 -12 -74 -12z" />
    <glyph glyph-name="u" unicode="u" horiz-adv-x="761" 
d="M346 -16q-111 0 -178.5 89.5t-67.5 250.5v751h86v-743q0 -133 45.5 -204t130.5 -71q88 0 146.5 81t58.5 210v727h86v-1075h-86v158q-72 -174 -221 -174z" />
    <glyph glyph-name="v" unicode="v" horiz-adv-x="712" 
d="M319 -6l-264 1081h88l213 -930l217 930h84l-264 -1081h-74z" />
    <glyph glyph-name="w" unicode="w" horiz-adv-x="1091" 
d="M289 -6l-223 1081h90l172 -932l182 932h78l178 -932l176 932h84l-223 -1081h-78l-180 905l-178 -905h-78z" />
    <glyph glyph-name="x" unicode="x" horiz-adv-x="690" 
d="M57 0l240 555l-223 520h88l182 -442l182 442h86l-219 -516l238 -559h-88l-199 481l-201 -481h-86z" />
    <glyph glyph-name="y" unicode="y" horiz-adv-x="708" 
d="M246 -266l67 276l-260 1065h88l213 -917l213 917h86l-325 -1341h-82z" />
    <glyph glyph-name="z" unicode="z" horiz-adv-x="593" 
d="M53 0v51l391 948h-370v76h465v-51l-392 -948h381v-76h-475z" />
    <glyph glyph-name="braceleft" unicode="{" horiz-adv-x="544" 
d="M500 -279q-153 7 -223 77.5t-70 185.5q0 65 41 185.5t41 195.5q0 34 -12.5 67t-38.5 63t-73 48t-108 18h-18v62h18q117 0 174.5 61.5t57.5 136.5q0 72 -41 197.5t-41 204.5q0 44 16 84t49 75t92 57.5t136 26.5v-63q-100 -3 -153.5 -55t-53.5 -134q0 -70 41 -188t41 -188
q0 -55 -17 -103.5t-63 -89.5t-115 -53q102 -20 148.5 -88.5t46.5 -155.5q0 -71 -41 -188.5t-41 -188.5q0 -81 53.5 -132t153.5 -54v-64z" />
    <glyph glyph-name="bar" unicode="|" horiz-adv-x="442" 
d="M184 -201v1774h74v-1774h-74z" />
    <glyph glyph-name="braceright" unicode="}" horiz-adv-x="544" 
d="M45 -279v64q100 3 153.5 54.5t53.5 133.5q0 71 -41 188.5t-41 188.5q0 55 17 103.5t63 89.5t115 53q-102 20 -148.5 88.5t-46.5 155.5q0 70 41 188t41 189q0 81 -53.5 132t-153.5 54v63q153 -7 223 -77t70 -185q0 -65 -41 -185.5t-41 -195.5q0 -34 12.5 -67t38 -63
t72.5 -48t108 -18h19v-62h-19q-61 0 -108 -18.5t-72.5 -49t-38 -63.5t-12.5 -67q0 -72 41 -197.5t41 -204.5q0 -44 -16 -84t-49 -75.5t-92 -58t-136 -26.5z" />
    <glyph glyph-name="asciitilde" unicode="~" horiz-adv-x="602" 
d="M391 512q-30 0 -50.5 11.5t-51.5 41.5q-50 47 -70 47q-32 0 -57 -92l-62 17q38 153 111 153q30 0 50.5 -11.5t51.5 -41.5q50 -47 70 -47q32 0 57 92l62 -16q-38 -154 -111 -154z" />
    <glyph glyph-name="nbspace" unicode="&#xa0;" horiz-adv-x="337" 
 />
    <glyph glyph-name="exclamdown" unicode="&#xa1;" horiz-adv-x="393" 
d="M135 1266v168h123v-168h-123zM143 0v143l31 916h45l31 -916v-143h-107z" />
    <glyph glyph-name="cent" unicode="&#xa2;" horiz-adv-x="593" 
d="M313 170q-115 24 -178 156t-63 379v20q0 247 63.5 380t177.5 159v176h70v-170q71 -2 145 -45v-88q-74 44 -145 49v-940q74 3 145 51v-86q-56 -39 -145 -45v-176h-70v180zM313 1176q-155 -56 -155 -447v-29q0 -386 155 -444v920z" />
    <glyph glyph-name="sterling" unicode="&#xa3;" horiz-adv-x="659" 
d="M66 0v43l102 37v590h-111v75h111v353q0 176 96 272q78 78 195 78q62 0 121 -23v-86q-60 27 -117 27q-84 0 -139 -55q-68 -68 -68 -215v-351h262v-75h-262v-590h379v-80h-569z" />
    <glyph glyph-name="currency" unicode="&#xa4;" horiz-adv-x="735" 
d="M506 -8q-134 0 -233 136t-126 390h-124v72h118q-4 70 -4 108v37q0 45 4 119h-118v72h124q30 249 133 382.5t240 133.5q74 0 139 -35v-98q-80 47 -139 47q-104 0 -180 -111.5t-102 -318.5h325v-72h-332q-4 -74 -4 -119v-37q0 -38 4 -108h332v-72h-325q24 -211 101 -325.5
t181 -114.5q73 0 146 51v-96q-68 -41 -160 -41z" />
    <glyph glyph-name="yen" unicode="&#xa5;" horiz-adv-x="700" 
d="M307 0v289h-198v71h198v203h-198v72h186l-285 799h99l243 -725l244 725h94l-284 -799h186v-72h-199v-203h199v-71h-199v-289h-86z" />
    <glyph glyph-name="section" unicode="&#xa7;" horiz-adv-x="737" 
d="M328 -14q-105 0 -197 45v90q110 -55 203 -55q73 0 118.5 41t45.5 104v6q0 63 -44.5 109.5t-162.5 115.5q-141 83 -193.5 144t-52.5 143v4q0 167 234 271q-69 52 -97 98.5t-28 111.5v7q0 97 72 162t184 65q95 0 172 -35v-90q-86 45 -179 45q-73 0 -118 -40.5t-45 -104.5
v-6q0 -64 44.5 -110.5t161.5 -115.5q142 -84 194 -144.5t52 -141.5v-5q0 -166 -233 -270q68 -52 96.5 -99t28.5 -112v-6q0 -97 -72 -162t-184 -65zM393 475q213 87 213 221v4q0 58 -42.5 104.5t-153.5 113.5q-44 25 -66 40q-213 -87 -213 -221v-4q0 -57 43 -103t154 -114
q32 -18 65 -41z" />
    <glyph glyph-name="dieresis" unicode="&#xa8;" 
d="M584 1270v143h94v-143h-94zM346 1270v143h94v-143h-94z" />
    <glyph glyph-name="copyright" unicode="&#xa9;" horiz-adv-x="1071" 
d="M535 -20q-145 0 -257 95.5t-170.5 254.5t-58.5 352v72q0 194 58.5 353t170.5 254t257 95t257 -95t171 -254t59 -353v-72q0 -193 -59 -352t-171 -254.5t-257 -95.5zM535 31q132 0 232 90t151 236.5t51 324.5v72q0 178 -51 324.5t-151 236.5t-232 90t-232 -90
t-150.5 -236.5t-50.5 -324.5v-72q0 -178 50.5 -324.5t150.5 -236.5t232 -90zM549 311q-91 0 -151 101t-60 295v22q0 192 62.5 292.5t156.5 100.5q47 0 90 -22v-80q-54 29 -86 29q-63 0 -105 -80t-42 -234v-37q0 -155 41.5 -234t107.5 -79q39 0 86 31v-78q-47 -27 -100 -27z
" />
    <glyph glyph-name="ordfeminine" unicode="&#xaa;" horiz-adv-x="512" 
d="M223 825q-58 0 -96.5 51t-38.5 132v12q0 85 42 136.5t112 51.5q47 0 88 -20v63q0 56 -27 87.5t-74 31.5q-51 0 -108 -29v68q53 29 115 29q77 0 120 -47t43 -134v-421h-69v69q-41 -80 -107 -80zM88 659v58h338v-58h-338zM233 887q41 0 69 43t28 102v96q-48 19 -82 19
q-44 0 -68 -34.5t-24 -90.5v-10q0 -57 19.5 -91t57.5 -34z" />
    <glyph glyph-name="guillemotleft" unicode="&#xab;" horiz-adv-x="673" 
d="M524 86l-237 428v16l237 428l72 -36l-227 -398l227 -401zM274 86l-237 428v16l237 428l72 -36l-227 -398l227 -401z" />
    <glyph glyph-name="registered" unicode="&#xae;" horiz-adv-x="1071" 
d="M535 -20q-145 0 -257 95.5t-170.5 254.5t-58.5 352v72q0 194 58.5 353t170.5 254t257 95t257 -95t171 -254t59 -353v-72q0 -193 -59 -352t-171 -254.5t-257 -95.5zM535 31q132 0 232 90t151 236.5t51 324.5v72q0 178 -51 324.5t-151 236.5t-232 90t-232 -90
t-150.5 -236.5t-50.5 -324.5v-72q0 -178 50.5 -324.5t150.5 -236.5t232 -90zM383 336v788h121q107 0 168 -63.5t61 -171.5v-6q0 -76 -33 -133t-90 -84l142 -330h-78l-129 307q-12 -2 -37 -2h-55v-305h-70zM453 709h55q71 0 112.5 43.5t41.5 128.5v4q0 83 -43 125.5
t-115 42.5h-51v-344z" />
    <glyph glyph-name="macron" unicode="&#xaf;" 
d="M299 1233v98h426v-98h-426z" />
    <glyph glyph-name="degree" unicode="&#xb0;" horiz-adv-x="507" 
d="M254 823q-88 0 -145.5 82t-57.5 223v17q0 141 57.5 223t145.5 82t145.5 -82t57.5 -223v-17q0 -141 -57.5 -223t-145.5 -82zM254 899q59 0 94 62.5t35 166.5v17q0 104 -35 166.5t-94 62.5t-94 -62.5t-35 -166.5v-17q0 -104 35 -166.5t94 -62.5z" />
    <glyph glyph-name="plusminus" unicode="&#xb1;" horiz-adv-x="634" 
d="M207 -8q-78 0 -164 37v84q95 -39 166 -39q120 0 197 85.5t77 231.5v4q0 149 -82 226.5t-233 85.5v77q135 11 222 100t87 224v4q0 114 -62.5 182t-168.5 68q-94 0 -180 -51v84q88 49 184 49q151 0 234 -93t83 -233v-8q0 -132 -68.5 -221.5t-185.5 -136.5q120 -33 190 -127
t70 -232v-4q0 -175 -102.5 -286t-263.5 -111z" />
    <glyph glyph-name="acute" unicode="&#xb4;" 
d="M393 1208l142 277l102 -53l-184 -224h-60z" />
    <glyph glyph-name="mu" unicode="&#xb5;" horiz-adv-x="831" 
d="M676 -199l-152 211q-51 -28 -108 -28q-152 0 -246 186t-94 530v33q0 344 94 530.5t246 186.5t246 -186.5t94 -530.5v-33q0 -231 -43.5 -391.5t-122.5 -242.5l188 -265h-102zM416 66q110 0 180 165.5t70 468.5v33q0 303 -70 469t-180 166t-180 -166t-70 -469v-33
q0 -303 70 -468.5t180 -165.5z" />
    <glyph glyph-name="paragraph" unicode="&#xb6;" horiz-adv-x="665" 
d="M461 0v528q-199 0 -309.5 123.5t-110.5 331.5v4q0 205 111 326t301 121h98v-1434h-90z" />
    <glyph glyph-name="periodcentered" unicode="&#xb7;" horiz-adv-x="311" 
d="M90 522v174h131v-174h-131z" />
    <glyph glyph-name="cedilla" unicode="&#xb8;" 
d="M467 -256l-96 41l135 235h63z" />
    <glyph glyph-name="ordmasculine" unicode="&#xba;" horiz-adv-x="512" 
d="M256 825q-79 0 -125.5 82t-46.5 215v21q0 133 46.5 215t125.5 82t125.5 -82t46.5 -215v-21q0 -133 -46.5 -215t-125.5 -82zM96 659v58h324v-58h-324zM256 891q52 0 77 65.5t25 165.5v21q0 100 -25 165.5t-77 65.5t-77 -65.5t-25 -165.5v-21q0 -100 25 -165.5t77 -65.5z
" />
    <glyph glyph-name="guillemotright" unicode="&#xbb;" horiz-adv-x="673" 
d="M391 86l-72 37l228 397l-228 402l72 36l238 -428v-16zM141 86l-71 37l227 397l-227 402l71 36l238 -428v-16z" />
    <glyph glyph-name="questiondown" unicode="&#xbf;" horiz-adv-x="620" 
d="M303 1266v168h123v-168h-123zM371 -8q-134 0 -225 96.5t-91 241.5v12q0 273 271 403l18 314h55l17 -354l-10 -15q-126 -48 -193.5 -129t-67.5 -215v-8q0 -119 67.5 -190.5t164.5 -71.5q92 0 194 57v-88q-94 -53 -200 -53z" />
    <glyph glyph-name="Agrave" unicode="&#xc0;" horiz-adv-x="839" 
d="M57 0l314 1440h98l313 -1440h-94l-84 401h-373l-84 -401h-90zM248 483h340l-170 815zM418 1518l-185 223l103 53l141 -276h-59z" />
    <glyph glyph-name="Aacute" unicode="&#xc1;" horiz-adv-x="839" 
d="M57 0l314 1440h98l313 -1440h-94l-84 401h-373l-84 -401h-90zM248 483h340l-170 815zM362 1518l142 276l102 -53l-184 -223h-60z" />
    <glyph glyph-name="Acircumflex" unicode="&#xc2;" horiz-adv-x="839" 
d="M57 0l314 1440h98l313 -1440h-94l-84 401h-373l-84 -401h-90zM248 483h340l-170 815zM242 1528l143 250h70l143 -250h-86l-94 153l-94 -153h-82z" />
    <glyph glyph-name="Atilde" unicode="&#xc3;" horiz-adv-x="839" 
d="M57 0l314 1440h98l313 -1440h-94l-84 401h-373l-84 -401h-90zM248 483h340l-170 815zM510 1522q-30 0 -50.5 11.5t-51.5 41.5q-50 47 -70 47q-32 0 -57 -92l-62 16q39 154 111 154q30 0 50.5 -11.5t51.5 -41.5q51 -48 70 -48q32 0 57 93l62 -17q-38 -153 -111 -153z" />
    <glyph glyph-name="Adieresis" unicode="&#xc4;" horiz-adv-x="839" 
d="M57 0l314 1440h98l313 -1440h-94l-84 401h-373l-84 -401h-90zM248 483h340l-170 815zM492 1579v143h94v-143h-94zM254 1579v143h94v-143h-94z" />
    <glyph glyph-name="Aring" unicode="&#xc5;" horiz-adv-x="839" 
d="M57 0l305 1407q-48 18 -79 65t-31 111v8q0 82 49 134.5t117 52.5t117 -52.5t49 -134.5v-8q0 -62 -30.5 -108.5t-78.5 -67.5l307 -1407h-94l-84 401h-373l-84 -401h-90zM418 1456q48 0 75 37t27 90v8q0 53 -27 90t-75 37q-49 0 -76 -37t-27 -90v-8q0 -53 27 -90t76 -37z
M248 483h340l-170 815z" />
    <glyph glyph-name="AE" unicode="&#xc6;" horiz-adv-x="1042" 
d="M6 0l404 1434h569v-82h-397v-588h362v-82h-362v-600h403v-82h-493v401h-285l-113 -401h-88zM229 483h263v869h-21z" />
    <glyph glyph-name="Ccedilla" unicode="&#xc7;" horiz-adv-x="673" 
d="M354 -256l-96 41l125 217q-138 37 -222.5 215.5t-84.5 480.5v37q0 172 31 309t84 222.5t121.5 130.5t146.5 45q74 0 139 -35v-96q-77 45 -139 45q-126 0 -209.5 -164t-83.5 -457v-37q0 -293 83.5 -456.5t209.5 -163.5q72 0 145 47v-92q-67 -41 -149 -41h-9z" />
    <glyph glyph-name="Egrave" unicode="&#xc8;" horiz-adv-x="665" 
d="M115 0v1434h487v-82h-397v-588h362v-82h-362v-600h403v-82h-493zM371 1518l-185 223l103 53l141 -276h-59z" />
    <glyph glyph-name="Eacute" unicode="&#xc9;" horiz-adv-x="665" 
d="M115 0v1434h487v-82h-397v-588h362v-82h-362v-600h403v-82h-493zM293 1518l141 276l103 -53l-185 -223h-59z" />
    <glyph glyph-name="Ecircumflex" unicode="&#xca;" horiz-adv-x="665" 
d="M115 0v1434h487v-82h-397v-588h362v-82h-362v-600h403v-82h-493zM154 1528l143 250h70l143 -250h-86l-94 153l-94 -153h-82z" />
    <glyph glyph-name="Edieresis" unicode="&#xcb;" horiz-adv-x="665" 
d="M115 0v1434h487v-82h-397v-588h362v-82h-362v-600h403v-82h-493zM434 1579v143h94v-143h-94zM197 1579v143h94v-143h-94z" />
    <glyph glyph-name="Igrave" unicode="&#xcc;" horiz-adv-x="348" 
d="M129 0v1434h90v-1434h-90zM164 1518l-184 223l102 53l141 -276h-59z" />
    <glyph glyph-name="Iacute" unicode="&#xcd;" horiz-adv-x="348" 
d="M129 0v1434h90v-1434h-90zM129 1518l141 276l103 -53l-185 -223h-59z" />
    <glyph glyph-name="Icircumflex" unicode="&#xce;" horiz-adv-x="348" 
d="M129 0v1434h90v-1434h-90zM-4 1528l143 250h70l143 -250h-86l-94 153l-94 -153h-82z" />
    <glyph glyph-name="Idieresis" unicode="&#xcf;" horiz-adv-x="348" 
d="M129 0v1434h90v-1434h-90zM246 1579v143h94v-143h-94zM8 1579v143h94v-143h-94z" />
    <glyph glyph-name="Eth" unicode="&#xd0;" horiz-adv-x="839" 
d="M135 0v684h-121v76h121v674h170q206 0 332.5 -182t126.5 -517v-37q0 -335 -126.5 -516.5t-332.5 -181.5h-170zM225 82h82q166 0 266.5 159.5t100.5 456.5v37q0 295 -102.5 456t-268.5 161h-78v-592h187v-76h-187v-602z" />
    <glyph glyph-name="Ntilde" unicode="&#xd1;" horiz-adv-x="860" 
d="M115 0v1434h98l446 -1205v1205h86v-1434h-88l-456 1233v-1233h-86zM522 1522q-30 0 -50.5 11.5t-51.5 41.5q-50 47 -70 47q-32 0 -57 -92l-62 16q39 154 111 154q30 0 50.5 -11.5t51.5 -41.5q51 -48 70 -48q32 0 57 93l62 -17q-38 -153 -111 -153z" />
    <glyph glyph-name="Ograve" unicode="&#xd2;" horiz-adv-x="831" 
d="M416 -16q-152 0 -246 186t-94 530v33q0 344 94 530.5t246 186.5t246 -186.5t94 -530.5v-33q0 -344 -94 -530t-246 -186zM416 66q110 0 180 165.5t70 468.5v33q0 303 -70 469t-180 166t-180 -166t-70 -469v-33q0 -303 70 -468.5t180 -165.5zM391 1518l-184 223l102 53
l142 -276h-60z" />
    <glyph glyph-name="Oacute" unicode="&#xd3;" horiz-adv-x="831" 
d="M416 -16q-152 0 -246 186t-94 530v33q0 344 94 530.5t246 186.5t246 -186.5t94 -530.5v-33q0 -344 -94 -530t-246 -186zM416 66q110 0 180 165.5t70 468.5v33q0 303 -70 469t-180 166t-180 -166t-70 -469v-33q0 -303 70 -468.5t180 -165.5zM383 1518l141 276l103 -53
l-185 -223h-59z" />
    <glyph glyph-name="Ocircumflex" unicode="&#xd4;" horiz-adv-x="831" 
d="M416 -16q-152 0 -246 186t-94 530v33q0 344 94 530.5t246 186.5t246 -186.5t94 -530.5v-33q0 -344 -94 -530t-246 -186zM416 66q110 0 180 165.5t70 468.5v33q0 303 -70 469t-180 166t-180 -166t-70 -469v-33q0 -303 70 -468.5t180 -165.5zM238 1528l143 250h70l143 -250
h-86l-94 153l-95 -153h-81z" />
    <glyph glyph-name="Otilde" unicode="&#xd5;" horiz-adv-x="831" 
d="M416 -16q-152 0 -246 186t-94 530v33q0 344 94 530.5t246 186.5t246 -186.5t94 -530.5v-33q0 -344 -94 -530t-246 -186zM416 66q110 0 180 165.5t70 468.5v33q0 303 -70 469t-180 166t-180 -166t-70 -469v-33q0 -303 70 -468.5t180 -165.5zM506 1522q-30 0 -51 12t-52 41
q-30 28 -43.5 37.5t-25.5 9.5q-33 0 -58 -92l-61 16q39 154 111 154q30 0 50.5 -11.5t51.5 -41.5q51 -48 70 -48q32 0 57 93l61 -17q-38 -153 -110 -153z" />
    <glyph glyph-name="Odieresis" unicode="&#xd6;" horiz-adv-x="831" 
d="M416 -16q-152 0 -246 186t-94 530v33q0 344 94 530.5t246 186.5t246 -186.5t94 -530.5v-33q0 -344 -94 -530t-246 -186zM416 66q110 0 180 165.5t70 468.5v33q0 303 -70 469t-180 166t-180 -166t-70 -469v-33q0 -303 70 -468.5t180 -165.5zM487 1579v143h95v-143h-95z
M250 1579v143h94v-143h-94z" />
    <glyph glyph-name="Oslash" unicode="&#xd8;" horiz-adv-x="831" 
d="M80 -16l82 200q-86 196 -86 516v33q0 344 94 530.5t246 186.5q125 0 211 -127l51 127h88l-90 -219q80 -184 80 -498v-33q0 -344 -94 -530t-246 -186q-120 0 -201 112l-47 -112h-88zM209 297l381 926q-65 147 -174 147q-110 0 -181 -167t-71 -470v-33q0 -248 45 -403z
M416 63q110 0 181 167t71 470v33q0 227 -39 383l-381 -921q68 -132 168 -132z" />
    <glyph glyph-name="Ugrave" unicode="&#xd9;" horiz-adv-x="837" 
d="M420 -18q-143 0 -226 104.5t-83 282.5v1065h90v-1067q0 -145 58.5 -224.5t160.5 -79.5t161.5 79.5t59.5 224.5v1067h90v-1065q0 -178 -84 -282.5t-227 -104.5zM389 1518l-184 223l102 53l142 -276h-60z" />
    <glyph glyph-name="Uacute" unicode="&#xda;" horiz-adv-x="837" 
d="M420 -18q-143 0 -226 104.5t-83 282.5v1065h90v-1067q0 -145 58.5 -224.5t160.5 -79.5t161.5 79.5t59.5 224.5v1067h90v-1065q0 -178 -84 -282.5t-227 -104.5zM381 1518l141 276l103 -53l-185 -223h-59z" />
    <glyph glyph-name="Ucircumflex" unicode="&#xdb;" horiz-adv-x="837" 
d="M420 -18q-143 0 -226 104.5t-83 282.5v1065h90v-1067q0 -145 58.5 -224.5t160.5 -79.5t161.5 79.5t59.5 224.5v1067h90v-1065q0 -178 -84 -282.5t-227 -104.5zM240 1528l143 250h70l143 -250h-86l-94 153l-94 -153h-82z" />
    <glyph glyph-name="Udieresis" unicode="&#xdc;" horiz-adv-x="837" 
d="M420 -18q-143 0 -226 104.5t-83 282.5v1065h90v-1067q0 -145 58.5 -224.5t160.5 -79.5t161.5 79.5t59.5 224.5v1067h90v-1065q0 -178 -84 -282.5t-227 -104.5zM489 1579v143h95v-143h-95zM252 1579v143h94v-143h-94z" />
    <glyph glyph-name="Yacute" unicode="&#xdd;" horiz-adv-x="720" 
d="M315 0v618l-299 816h99l247 -703l250 703h93l-299 -816v-618h-91zM324 1518l141 276l102 -53l-184 -223h-59z" />
    <glyph glyph-name="Thorn" unicode="&#xde;" horiz-adv-x="745" 
d="M115 0v1434h94v-250h84q190 0 301 -121t111 -326v-4q0 -208 -110.5 -331t-309.5 -123h-80v-279h-90zM205 358h88q154 0 237.5 98.5t83.5 274.5v4q0 173 -87 270t-238 97h-84v-744z" />
    <glyph glyph-name="germandbls" unicode="&#xdf;" horiz-adv-x="745" 
d="M315 -4v74q142 9 213.5 90t71.5 215v6q0 275 -285 328v67q86 30 142.5 89t78 123.5t21.5 137.5v7q0 114 -50 176.5t-126 62.5q-86 0 -136 -77.5t-50 -211.5v-1083h-86v1077q0 177 74 277t200 100q113 0 186.5 -86t73.5 -229v-11q0 -135 -61.5 -231.5t-165.5 -142.5
q270 -88 270 -365v-12q0 -170 -98 -273.5t-273 -107.5z" />
    <glyph glyph-name="agrave" unicode="&#xe0;" horiz-adv-x="706" 
d="M303 -18q-108 0 -177 94t-69 237v17q0 153 75.5 248.5t207.5 95.5q93 0 180 -41v135q0 114 -52 176t-153 62q-108 0 -198 -50v84q96 47 202 47q134 0 210.5 -80t76.5 -229v-778h-86v156q-71 -174 -217 -174zM315 57q91 0 148 83.5t57 195.5v215q-91 43 -176 43
q-97 0 -149 -71.5t-52 -188.5v-17q0 -114 45 -187t127 -73zM336 1208l-184 224l102 53l141 -277h-59z" />
    <glyph glyph-name="aacute" unicode="&#xe1;" horiz-adv-x="706" 
d="M303 -18q-108 0 -177 94t-69 237v17q0 153 75.5 248.5t207.5 95.5q93 0 180 -41v135q0 114 -52 176t-153 62q-108 0 -198 -50v84q96 47 202 47q134 0 210.5 -80t76.5 -229v-778h-86v156q-71 -174 -217 -174zM315 57q91 0 148 83.5t57 195.5v215q-91 43 -176 43
q-97 0 -149 -71.5t-52 -188.5v-17q0 -114 45 -187t127 -73zM305 1208l141 277l103 -53l-184 -224h-60z" />
    <glyph glyph-name="acircumflex" unicode="&#xe2;" horiz-adv-x="706" 
d="M303 -18q-108 0 -177 94t-69 237v17q0 153 75.5 248.5t207.5 95.5q93 0 180 -41v135q0 114 -52 176t-153 62q-108 0 -198 -50v84q96 47 202 47q134 0 210.5 -80t76.5 -229v-778h-86v156q-71 -174 -217 -174zM315 57q91 0 148 83.5t57 195.5v215q-91 43 -176 43
q-97 0 -149 -71.5t-52 -188.5v-17q0 -114 45 -187t127 -73zM176 1219l143 249h70l143 -249h-86l-94 153l-94 -153h-82z" />
    <glyph glyph-name="atilde" unicode="&#xe3;" horiz-adv-x="706" 
d="M303 -18q-108 0 -177 94t-69 237v17q0 153 75.5 248.5t207.5 95.5q93 0 180 -41v135q0 114 -52 176t-153 62q-108 0 -198 -50v84q96 47 202 47q134 0 210.5 -80t76.5 -229v-778h-86v156q-71 -174 -217 -174zM315 57q91 0 148 83.5t57 195.5v215q-91 43 -176 43
q-97 0 -149 -71.5t-52 -188.5v-17q0 -114 45 -187t127 -73zM449 1212q-30 0 -50.5 12t-52.5 42q-50 47 -70 47q-32 0 -57 -92l-61 16q38 154 110 154q30 0 50.5 -12t52.5 -42q30 -28 43.5 -37.5t25.5 -9.5q33 0 58 92l61 -16q-39 -154 -110 -154z" />
    <glyph glyph-name="adieresis" unicode="&#xe4;" horiz-adv-x="706" 
d="M303 -18q-108 0 -177 94t-69 237v17q0 153 75.5 248.5t207.5 95.5q93 0 180 -41v135q0 114 -52 176t-153 62q-108 0 -198 -50v84q96 47 202 47q134 0 210.5 -80t76.5 -229v-778h-86v156q-71 -174 -217 -174zM315 57q91 0 148 83.5t57 195.5v215q-91 43 -176 43
q-97 0 -149 -71.5t-52 -188.5v-17q0 -114 45 -187t127 -73zM428 1270v143h94v-143h-94zM190 1270v143h95v-143h-95z" />
    <glyph glyph-name="aring" unicode="&#xe5;" horiz-adv-x="706" 
d="M303 -18q-108 0 -177 94t-69 237v17q0 153 75.5 248.5t207.5 95.5q93 0 180 -41v135q0 114 -52 176t-153 62q-108 0 -198 -50v84q96 47 202 47q134 0 210.5 -80t76.5 -229v-778h-86v156q-71 -174 -217 -174zM315 57q91 0 148 83.5t57 195.5v215q-91 43 -176 43
q-97 0 -149 -71.5t-52 -188.5v-17q0 -114 45 -187t127 -73zM358 1221q-68 0 -116.5 52t-48.5 134v8q0 82 48.5 134.5t116.5 52.5t117 -52.5t49 -134.5v-8q0 -82 -49 -134t-117 -52zM358 1280q49 0 76 37t27 90v8q0 53 -27 90t-76 37q-48 0 -75 -37t-27 -90v-8q0 -53 27 -90
t75 -37z" />
    <glyph glyph-name="ae" unicode="&#xe6;" horiz-adv-x="1155" 
d="M303 -18q-108 0 -177 94t-69 237v17q0 153 75.5 248.5t207.5 95.5q93 0 180 -41v135q0 114 -52 176t-153 62q-108 0 -198 -50v84q96 47 202 47q207 0 261 -182q38 91 96 139t127 48q123 0 201.5 -140.5t78.5 -386.5v-63h-489q3 -209 78 -321.5t190 -112.5q93 0 187 63
l10 -88q-57 -33 -101.5 -45t-107.5 -12q-94 0 -171 62t-120 181q-33 -108 -97 -177.5t-159 -69.5zM594 578h405q0 187 -55 310.5t-141 123.5q-87 0 -145 -113.5t-64 -320.5zM315 57q80 0 137 80t80 191q-21 118 -16 227q-95 39 -172 39q-97 0 -149 -71.5t-52 -188.5v-17
q0 -114 45 -187t127 -73z" />
    <glyph glyph-name="ccedilla" unicode="&#xe7;" horiz-adv-x="575" 
d="M289 -256l-96 41l122 213q-109 36 -179 169.5t-70 356.5v21q0 135 28 242t74.5 171.5t104 98t120.5 33.5q72 0 129 -37v-95q-64 50 -131 50q-43 0 -84.5 -28t-76.5 -82t-56.5 -144.5t-21.5 -204.5v-29q0 -117 21 -206.5t56.5 -141.5t78.5 -78t91 -26q65 0 123 49v-90
q-57 -41 -129 -41h-14z" />
    <glyph glyph-name="egrave" unicode="&#xe8;" horiz-adv-x="712" 
d="M408 -14q-144 0 -243 139t-99 393v19q0 267 84 411t210 144q124 0 202.5 -140.5t78.5 -386.5v-63h-489q3 -209 78 -321.5t190 -112.5q50 0 92 14t94 49l10 -88q-58 -33 -102 -45t-106 -12zM152 578h405q0 187 -55.5 310.5t-141.5 123.5q-87 0 -144.5 -113.5t-63.5 -320.5
zM338 1208l-184 224l102 53l141 -277h-59z" />
    <glyph glyph-name="eacute" unicode="&#xe9;" horiz-adv-x="712" 
d="M408 -14q-144 0 -243 139t-99 393v19q0 267 84 411t210 144q124 0 202.5 -140.5t78.5 -386.5v-63h-489q3 -209 78 -321.5t190 -112.5q50 0 92 14t94 49l10 -88q-58 -33 -102 -45t-106 -12zM152 578h405q0 187 -55.5 310.5t-141.5 123.5q-87 0 -144.5 -113.5t-63.5 -320.5
zM317 1208l142 277l102 -53l-184 -224h-60z" />
    <glyph glyph-name="ecircumflex" unicode="&#xea;" horiz-adv-x="712" 
d="M408 -14q-144 0 -243 139t-99 393v19q0 267 84 411t210 144q124 0 202.5 -140.5t78.5 -386.5v-63h-489q3 -209 78 -321.5t190 -112.5q50 0 92 14t94 49l10 -88q-58 -33 -102 -45t-106 -12zM152 578h405q0 187 -55.5 310.5t-141.5 123.5q-87 0 -144.5 -113.5t-63.5 -320.5
zM176 1219l143 249h70l143 -249h-86l-94 153l-94 -153h-82z" />
    <glyph glyph-name="edieresis" unicode="&#xeb;" horiz-adv-x="712" 
d="M408 -14q-144 0 -243 139t-99 393v19q0 267 84 411t210 144q124 0 202.5 -140.5t78.5 -386.5v-63h-489q3 -209 78 -321.5t190 -112.5q50 0 92 14t94 49l10 -88q-58 -33 -102 -45t-106 -12zM152 578h405q0 187 -55.5 310.5t-141.5 123.5q-87 0 -144.5 -113.5t-63.5 -320.5
zM426 1270v143h94v-143h-94zM188 1270v143h95v-143h-95z" />
    <glyph glyph-name="igrave" unicode="&#xec;" horiz-adv-x="327" 
d="M121 0v1075h86v-1075h-86zM162 1208l-185 224l103 53l141 -277h-59z" />
    <glyph glyph-name="iacute" unicode="&#xed;" horiz-adv-x="327" 
d="M121 0v1075h86v-1075h-86zM106 1208l142 277l102 -53l-184 -224h-60z" />
    <glyph glyph-name="icircumflex" unicode="&#xee;" horiz-adv-x="327" 
d="M121 0v1075h86v-1075h-86zM-14 1219l143 249h70l143 -249h-86l-94 153l-94 -153h-82z" />
    <glyph glyph-name="idieresis" unicode="&#xef;" horiz-adv-x="327" 
d="M121 0v1075h86v-1075h-86zM236 1270v143h94v-143h-94zM-2 1270v143h94v-143h-94z" />
    <glyph glyph-name="eth" unicode="&#xf0;" horiz-adv-x="722" 
d="M362 -16q-122 0 -207 136t-85 359v19q0 219 84 357t190 138q33 0 61 -15.5t66 -53.5l-135 272l-180 -113l-33 72l178 111l-90 182h92l66 -139l133 82l33 -72l-132 -82l166 -352q86 -180 86 -383v-19q0 -226 -85.5 -362.5t-207.5 -136.5zM362 63q89 0 148 113.5t59 302.5
v19q0 195 -63.5 305t-147.5 110q-83 0 -142.5 -114t-59.5 -301v-19q0 -190 58 -303t148 -113z" />
    <glyph glyph-name="ntilde" unicode="&#xf1;" horiz-adv-x="761" 
d="M109 2v1075h86v-157q72 174 221 174q111 0 178.5 -89.5t67.5 -250.5v-752h-87v743q0 133 -45.5 204t-130.5 71q-87 0 -145.5 -81t-58.5 -210v-727h-86zM471 1212q-30 0 -50 12t-52 42q-50 47 -70 47q-32 0 -57 -92l-62 16q38 154 111 154q30 0 50 -12t52 -42
q50 -47 70 -47q32 0 57 92l62 -16q-38 -154 -111 -154z" />
    <glyph glyph-name="ograve" unicode="&#xf2;" horiz-adv-x="741" 
d="M371 -16q-126 0 -215.5 149.5t-89.5 394.5v19q0 245 90 395t217 150q126 0 214.5 -149.5t88.5 -395.5v-19q0 -245 -89.5 -394.5t-215.5 -149.5zM371 63q93 0 156 128.5t63 336.5v19q0 208 -63 336.5t-156 128.5t-156 -128.5t-63 -336.5v-19q0 -208 63 -336.5t156 -128.5z
M348 1208l-184 224l102 53l142 -277h-60z" />
    <glyph glyph-name="oacute" unicode="&#xf3;" horiz-adv-x="741" 
d="M371 -16q-126 0 -215.5 149.5t-89.5 394.5v19q0 245 90 395t217 150q126 0 214.5 -149.5t88.5 -395.5v-19q0 -245 -89.5 -394.5t-215.5 -149.5zM371 63q93 0 156 128.5t63 336.5v19q0 208 -63 336.5t-156 128.5t-156 -128.5t-63 -336.5v-19q0 -208 63 -336.5t156 -128.5z
M332 1208l141 277l102 -53l-184 -224h-59z" />
    <glyph glyph-name="ocircumflex" unicode="&#xf4;" horiz-adv-x="741" 
d="M371 -16q-126 0 -215.5 149.5t-89.5 394.5v19q0 245 90 395t217 150q126 0 214.5 -149.5t88.5 -395.5v-19q0 -245 -89.5 -394.5t-215.5 -149.5zM371 63q93 0 156 128.5t63 336.5v19q0 208 -63 336.5t-156 128.5t-156 -128.5t-63 -336.5v-19q0 -208 63 -336.5t156 -128.5z
M193 1219l143 249h70l143 -249h-86l-94 153l-95 -153h-81z" />
    <glyph glyph-name="otilde" unicode="&#xf5;" horiz-adv-x="741" 
d="M371 -16q-126 0 -215.5 149.5t-89.5 394.5v19q0 245 90 395t217 150q126 0 214.5 -149.5t88.5 -395.5v-19q0 -245 -89.5 -394.5t-215.5 -149.5zM371 63q93 0 156 128.5t63 336.5v19q0 208 -63 336.5t-156 128.5t-156 -128.5t-63 -336.5v-19q0 -208 63 -336.5t156 -128.5z
M461 1212q-30 0 -50.5 12t-52.5 42q-30 28 -43.5 37.5t-25.5 9.5q-33 0 -58 -92l-61 16q38 154 111 154q30 0 50 -12t52 -42q50 -47 70 -47q32 0 57 92l61 -16q-39 -154 -110 -154z" />
    <glyph glyph-name="odieresis" unicode="&#xf6;" horiz-adv-x="741" 
d="M371 -16q-126 0 -215.5 149.5t-89.5 394.5v19q0 245 90 395t217 150q126 0 214.5 -149.5t88.5 -395.5v-19q0 -245 -89.5 -394.5t-215.5 -149.5zM371 63q93 0 156 128.5t63 336.5v19q0 208 -63 336.5t-156 128.5t-156 -128.5t-63 -336.5v-19q0 -208 63 -336.5t156 -128.5z
M442 1270v143h95v-143h-95zM205 1270v143h94v-143h-94z" />
    <glyph glyph-name="oslash" unicode="&#xf8;" horiz-adv-x="741" 
d="M74 -16l76 159q-84 152 -84 385v19q0 245 90 395t217 150q100 0 176 -95l37 78h82l-72 -149q80 -150 80 -379v-19q0 -245 -89.5 -394.5t-215.5 -149.5q-96 0 -172 88l-43 -88h-82zM193 233l323 678q-61 103 -145 103q-93 0 -157 -129.5t-64 -337.5v-19q0 -171 43 -295z
M371 61q93 0 157 129.5t64 337.5v19q0 169 -41 284l-322 -675q61 -95 142 -95z" />
    <glyph glyph-name="ugrave" unicode="&#xf9;" horiz-adv-x="761" 
d="M346 -16q-111 0 -178.5 89.5t-67.5 250.5v751h86v-743q0 -133 45.5 -204t130.5 -71q88 0 146.5 81t58.5 210v727h86v-1075h-86v158q-72 -174 -221 -174zM362 1208l-184 224l103 53l141 -277h-60z" />
    <glyph glyph-name="uacute" unicode="&#xfa;" horiz-adv-x="761" 
d="M346 -16q-111 0 -178.5 89.5t-67.5 250.5v751h86v-743q0 -133 45.5 -204t130.5 -71q88 0 146.5 81t58.5 210v727h86v-1075h-86v158q-72 -174 -221 -174zM330 1208l141 277l102 -53l-184 -224h-59z" />
    <glyph glyph-name="ucircumflex" unicode="&#xfb;" horiz-adv-x="761" 
d="M346 -16q-111 0 -178.5 89.5t-67.5 250.5v751h86v-743q0 -133 45.5 -204t130.5 -71q88 0 146.5 81t58.5 210v727h86v-1075h-86v158q-72 -174 -221 -174zM199 1219l143 249h70l143 -249h-86l-94 153l-94 -153h-82z" />
    <glyph glyph-name="udieresis" unicode="&#xfc;" horiz-adv-x="761" 
d="M346 -16q-111 0 -178.5 89.5t-67.5 250.5v751h86v-743q0 -133 45.5 -204t130.5 -71q88 0 146.5 81t58.5 210v727h86v-1075h-86v158q-72 -174 -221 -174zM449 1270v143h94v-143h-94zM211 1270v143h94v-143h-94z" />
    <glyph glyph-name="yacute" unicode="&#xfd;" horiz-adv-x="708" 
d="M246 -266l67 276l-260 1065h88l213 -917l213 917h86l-325 -1341h-82zM285 1208l141 277l102 -53l-184 -224h-59z" />
    <glyph glyph-name="thorn" unicode="&#xfe;" horiz-adv-x="770" 
d="M109 -266v1714h86v-580q35 101 91.5 162.5t133.5 61.5q117 0 198.5 -143.5t81.5 -391.5v-39q0 -246 -82 -390t-198 -144q-77 0 -133.5 61t-91.5 162v-473h-86zM410 59q87 0 145.5 123.5t58.5 337.5v35q0 214 -58.5 337.5t-145.5 123.5q-88 0 -154 -123.5t-66 -329.5v-51
q0 -206 66 -329.5t154 -123.5z" />
    <glyph glyph-name="ydieresis" unicode="&#xff;" horiz-adv-x="708" 
d="M246 -266l67 276l-260 1065h88l213 -917l213 917h86l-325 -1341h-82zM426 1270v143h94v-143h-94zM188 1270v143h95v-143h-95z" />
    <glyph glyph-name="dotlessi" unicode="&#x131;" horiz-adv-x="327" 
d="M121 0v1075h86v-1075h-86z" />
    <glyph glyph-name="Lslash" unicode="&#x141;" horiz-adv-x="581" 
d="M115 0v666l-103 -33v82l103 33v686h90v-658l192 62v-82l-192 -62v-612h360v-82h-450z" />
    <glyph glyph-name="lslash" unicode="&#x142;" horiz-adv-x="409" 
d="M162 0v700l-137 -45v82l137 45v666h86v-639l143 47v-82l-143 -47v-727h-86z" />
    <glyph glyph-name="OE" unicode="&#x152;" horiz-adv-x="1144" 
d="M535 0q-206 0 -332.5 181.5t-126.5 516.5v37q0 335 126.5 517t332.5 182h546v-82h-397v-588h363v-82h-363v-600h403v-82h-552zM537 82h57v1270h-62q-166 0 -266 -160t-100 -457v-37q0 -295 102.5 -455.5t268.5 -160.5z" />
    <glyph glyph-name="oe" unicode="&#x153;" horiz-adv-x="1228" 
d="M371 -16q-126 0 -215.5 149.5t-89.5 394.5v19q0 245 90 395t217 150q83 0 150 -69.5t104 -193.5q34 127 102 195t148 68q123 0 201.5 -140.5t78.5 -386.5v-63h-489q3 -209 78 -321.5t190 -112.5q50 0 92 14t94 49l11 -88q-57 -33 -101.5 -45t-107.5 -12q-103 0 -182.5 71
t-112.5 197q-37 -128 -105 -199t-153 -71zM668 578h405q0 187 -55 310.5t-141 123.5q-87 0 -145 -113.5t-64 -320.5zM371 63q93 0 156 128.5t63 336.5v19q0 208 -63 336.5t-156 128.5t-156 -128.5t-63 -336.5v-19q0 -208 63 -336.5t156 -128.5z" />
    <glyph glyph-name="Scaron" unicode="&#x160;" horiz-adv-x="681" 
d="M317 -20q-115 0 -247 75v103q143 -92 249 -92q91 0 145 55.5t54 150.5v4q0 88 -40 168.5t-161 243.5q-146 197 -191.5 285t-45.5 184v4q0 126 81 209.5t199 83.5q110 0 218 -63v-103q-118 80 -220 80q-83 0 -135.5 -56t-52.5 -145v-4q0 -79 41.5 -158.5t161.5 -232.5
q133 -168 184 -272t51 -217v-4q0 -135 -82 -217t-209 -82zM313 1528l-143 250h86l94 -154l94 154h82l-143 -250h-70z" />
    <glyph glyph-name="scaron" unicode="&#x161;" horiz-adv-x="571" 
d="M266 -12q-107 0 -215 51v90q116 -61 219 -61q70 0 117 43t47 116v4q0 58 -38.5 121t-131.5 152q-120 114 -165.5 188t-45.5 156v4q0 108 71.5 171.5t172.5 63.5q100 0 178 -34v-90q-89 45 -182 45q-67 0 -110.5 -41.5t-43.5 -110.5v-4q0 -58 36 -112.5t134 -151.5
q117 -116 164 -192t47 -160v-5q0 -110 -75.5 -176.5t-178.5 -66.5zM258 1219l-143 249h86l94 -153l94 153h82l-143 -249h-70z" />
    <glyph glyph-name="Ydieresis" unicode="&#x178;" horiz-adv-x="720" 
d="M315 0v618l-299 816h99l247 -703l250 703h93l-299 -816v-618h-91zM432 1579v143h94v-143h-94zM195 1579v143h94v-143h-94z" />
    <glyph glyph-name="Zcaron" unicode="&#x17d;" horiz-adv-x="688" 
d="M61 0v53l476 1305h-453v76h547v-52l-475 -1304h475v-78h-570zM313 1528l-143 250h86l94 -154l94 154h82l-143 -250h-70z" />
    <glyph glyph-name="zcaron" unicode="&#x17e;" horiz-adv-x="593" 
d="M53 0v51l391 948h-370v76h465v-51l-392 -948h381v-76h-475zM264 1219l-143 249h86l94 -153l94 153h82l-143 -249h-70z" />
    <glyph glyph-name="florin" unicode="&#x192;" horiz-adv-x="661" 
d="M100 -10q-35 0 -82 14v84q42 -14 82 -14q99 0 113 153l57 570h-116v73h122l35 342q11 111 65 171.5t144 60.5q57 0 113 -23v-90q-55 25 -113 25q-51 0 -83.5 -41t-39.5 -119l-32 -326h202v-73h-209l-57 -576q-12 -119 -61.5 -175t-139.5 -56z" />
    <glyph glyph-name="circumflex" unicode="&#x2c6;" 
d="M334 1219l143 249h70l143 -249h-86l-94 153l-94 -153h-82z" />
    <glyph glyph-name="caron" unicode="&#x2c7;" 
d="M477 1219l-143 249h86l94 -153l94 153h82l-143 -249h-70z" />
    <glyph glyph-name="breve" unicode="&#x2d8;" 
d="M512 1214q-79 0 -139.5 69.5t-61.5 184.5h74q5 -71 40.5 -122.5t86.5 -51.5t86.5 51.5t40.5 122.5h74q-1 -115 -61.5 -184.5t-139.5 -69.5z" />
    <glyph glyph-name="dotaccent" unicode="&#x2d9;" 
d="M461 1270v143h102v-143h-102z" />
    <glyph glyph-name="ring" unicode="&#x2da;" 
d="M512 1221q-68 0 -117 52t-49 134v8q0 82 49 134.5t117 52.5t117 -52.5t49 -134.5v-8q0 -82 -49 -134t-117 -52zM512 1280q48 0 75 37t27 90v8q0 53 -27 90t-75 37t-75 -37t-27 -90v-8q0 -53 27 -90t75 -37z" />
    <glyph glyph-name="ogonek" unicode="&#x2db;" 
d="M684 -262q-138 4 -208 54.5t-70 127.5q0 55 32 103h64q-13 -50 -13 -86q0 -55 50 -90t145 -42v-67z" />
    <glyph glyph-name="tilde" unicode="&#x2dc;" 
d="M602 1212q-30 0 -50 12t-52 42q-50 47 -70 47q-32 0 -57 -92l-62 16q39 154 111 154q30 0 50 -12t52 -42q50 -47 70 -47q32 0 57 92l62 -16q-39 -154 -111 -154z" />
    <glyph glyph-name="hungarumlaut" unicode="&#x2dd;" 
d="M514 1208l141 277l103 -53l-185 -224h-59zM272 1208l142 277l102 -53l-184 -224h-60z" />
    <glyph glyph-name="Omega" unicode="&#x3a9;" horiz-adv-x="884" 
d="M594 0v995h-111v80h111v125q0 123 54 187.5t155 64.5q31 0 63 -8v-84q-32 8 -61 8q-125 0 -125 -170v-123h176v-80h-176v-995h-86zM152 0v995h-111v80h111v125q0 123 53.5 187.5t154.5 64.5q32 0 64 -8v-84q-32 8 -62 8q-124 0 -124 -170v-123h176v-80h-176v-995h-86z
" />
    <glyph glyph-name="pi" unicode="&#x3c0;" horiz-adv-x="1071" 
d="M535 -20q-145 0 -257 95.5t-170.5 254.5t-58.5 352v72q0 194 58.5 353t170.5 254t257 95t257 -95t171 -254t59 -353v-72q0 -193 -59 -352t-171 -254.5t-257 -95.5zM535 31q132 0 232 90t151 236.5t51 324.5v72q0 178 -51 324.5t-151 236.5t-232 90t-232 -90
t-150.5 -236.5t-50.5 -324.5v-72q0 -178 50.5 -324.5t150.5 -236.5t232 -90zM397 336v790h107q107 0 169 -66.5t62 -185.5v-4q0 -120 -61 -187t-170 -69h-39v-278h-68zM465 682h57q68 2 107 51.5t39 134.5v2q0 86 -40.5 137.5t-105.5 51.5h-57v-377z" />
    <glyph glyph-name="endash" unicode="&#x2013;" horiz-adv-x="815" 
d="M82 565v82h651v-82h-651z" />
    <glyph glyph-name="emdash" unicode="&#x2014;" horiz-adv-x="1183" 
d="M82 565v82h1020v-82h-1020z" />
    <glyph glyph-name="quoteleft" unicode="&#x2018;" horiz-adv-x="307" 
d="M86 1051v151q0 94 33 144t119 90l24 -52q-60 -26 -84.5 -63t-19.5 -96h55v-174h-127z" />
    <glyph glyph-name="quoteright" unicode="&#x2019;" horiz-adv-x="307" 
d="M70 1055l-25 51q60 26 84.5 64t20.5 96h-56v168h127v-146q0 -94 -32.5 -143.5t-118.5 -89.5z" />
    <glyph glyph-name="quotesinglbase" unicode="&#x201a;" horiz-adv-x="307" 
d="M66 -211l-25 51q60 26 84.5 63.5t19.5 96.5h-55v168h127v-145q0 -94 -32.5 -144t-118.5 -90z" />
    <glyph glyph-name="quotedblleft" unicode="&#x201c;" horiz-adv-x="573" 
d="M352 1051v151q0 94 33 144t119 90l24 -52q-60 -26 -84.5 -63t-19.5 -96h55v-174h-127zM86 1051v151q0 94 33 144t119 90l24 -52q-60 -26 -84.5 -63t-19.5 -96h55v-174h-127z" />
    <glyph glyph-name="quotedblright" unicode="&#x201d;" horiz-adv-x="573" 
d="M336 1055l-25 51q60 26 84.5 64t20.5 96h-56v168h127v-146q0 -94 -32.5 -143.5t-118.5 -89.5zM70 1055l-25 51q60 26 84.5 64t20.5 96h-56v168h127v-146q0 -94 -32.5 -143.5t-118.5 -89.5z" />
    <glyph glyph-name="quotedblbase" unicode="&#x201e;" horiz-adv-x="573" 
d="M332 -211l-25 51q60 26 84.5 64t20.5 96h-56v168h127v-145q0 -94 -32.5 -144t-118.5 -90zM66 -211l-25 51q60 26 84.5 63.5t19.5 96.5h-55v168h127v-145q0 -94 -32.5 -144t-118.5 -90z" />
    <glyph glyph-name="dagger" unicode="&#x2020;" horiz-adv-x="473" 
d="M195 487l16 594l-174 -20v88l174 -21l-23 306h99l-23 -306l172 21v-88l-172 20l17 -594h-86z" />
    <glyph glyph-name="daggerdbl" unicode="&#x2021;" horiz-adv-x="522" 
d="M211 0l25 305l-175 -20v88l175 -21l-21 365l21 364l-175 -20v88l175 -21l-23 306h98l-22 -306l172 21v-88l-172 20l20 -364l-20 -365l172 21v-88l-172 20l20 -305h-98z" />
    <glyph glyph-name="bullet" unicode="&#x2022;" horiz-adv-x="636" 
d="M319 500q-75 0 -120 54.5t-45 158.5v24q0 104 45 158.5t120 54.5t120.5 -54.5t45.5 -158.5v-24q0 -104 -45.5 -158.5t-120.5 -54.5z" />
    <glyph glyph-name="ellipsis" unicode="&#x2026;" horiz-adv-x="962" 
d="M743 0v174h131v-174h-131zM416 0v174h131v-174h-131zM88 0v174h131v-174h-131z" />
    <glyph glyph-name="perthousand" unicode="&#x2030;" horiz-adv-x="1536" 
d="M266 764q-89 0 -150 89t-61 243v16q0 154 61 243t150 89t150 -89t61 -243v-16q0 -154 -61 -243t-150 -89zM154 0l641 1434h75l-641 -1434h-75zM1270 -10q-89 0 -150 89t-61 243v16q0 154 61 243t150 89t150 -89t61 -243v-16q0 -154 -61 -243t-150 -89zM758 -10
q-89 0 -150 89t-61 243v16q0 154 61 243t150 89t150 -89t61 -243v-16q0 -154 -61 -243t-150 -89zM266 842q60 0 97.5 68.5t37.5 185.5v16q0 117 -37.5 185.5t-97.5 68.5t-97.5 -68.5t-37.5 -185.5v-16q0 -117 37.5 -185.5t97.5 -68.5zM1270 68q60 0 97.5 68.5t37.5 185.5v16
q0 117 -37.5 185.5t-97.5 68.5t-97.5 -68.5t-37.5 -185.5v-16q0 -117 37.5 -185.5t97.5 -68.5zM758 68q60 0 97.5 68.5t37.5 185.5v16q0 117 -37.5 185.5t-97.5 68.5t-97.5 -68.5t-37.5 -185.5v-16q0 -117 37.5 -185.5t97.5 -68.5z" />
    <glyph glyph-name="guilsinglleft" unicode="&#x2039;" horiz-adv-x="444" 
d="M303 86l-237 428v16l237 428l72 -36l-228 -398l228 -401z" />
    <glyph glyph-name="guilsinglright" unicode="&#x203a;" horiz-adv-x="444" 
d="M141 86l-71 37l227 401l-227 398l71 36l238 -428v-16z" />
    <glyph glyph-name="fraction" unicode="&#x2044;" horiz-adv-x="716" 
d="M25 -16l573 1466h80l-574 -1466h-79z" />
    <glyph glyph-name="trademark" unicode="&#x2122;" horiz-adv-x="796" 
d="M362 788v646h82l99 -316l98 316h80v-646h-62v527l-112 -357h-8l-115 357v-527h-62zM111 788v586h-103v60h271v-60h-105v-586h-63z" />
    <glyph glyph-name="radical" unicode="&#x221a;" horiz-adv-x="1212" 
d="M594 0v995h-111v80h111v125q0 123 54 187.5t155 64.5q31 0 63 -8v-84q-32 8 -61 8q-125 0 -125 -170v-123h176v-80h-176v-995h-86zM152 0v995h-111v80h111v125q0 123 53.5 187.5t154.5 64.5q32 0 64 -8v-84q-32 8 -62 8q-124 0 -124 -170v-123h176v-80h-176v-995h-86z
M1006 0v1448h86v-1448h-86z" />
    <glyph glyph-name="approxequal" unicode="&#x2248;" horiz-adv-x="1212" 
d="M1001 1305v143h95v-143h-95zM594 0v995h-111v80h111v125q0 123 54 187.5t155 64.5q31 0 63 -8v-84q-32 8 -61 8q-125 0 -125 -170v-123h176v-80h-176v-995h-86zM152 0v995h-111v80h111v125q0 123 53.5 187.5t154.5 64.5q32 0 64 -8v-84q-32 8 -62 8q-124 0 -124 -170
v-123h176v-80h-176v-995h-86zM1006 0v1075h86v-1075h-86z" />
    <glyph glyph-name="apple" unicode="&#xf8ff;" horiz-adv-x="1980" 
d="M1778 0h-1571v1536h1571v-1536zM1759 -213h-12l-6 41l-21 -43h-4l-20 43l-6 -41h-13l13 70h2l26 -54l27 54h2zM1651 -178q0 -15 -10 -26t-25 -11t-25 10.5t-10 24.5q0 16 10 26.5t27 10.5q13 0 23 -10.5t10 -24.5zM1552 -197l-2 -12q-6 -6 -20 -6q-17 0 -27 10t-10 25
t11 26t26 11q11 0 22 -7l-4 -10q-6 6 -18 6q-9 0 -17 -7t-8 -17q0 -13 8 -20t19 -7q8 0 20 8zM1438 -145l-27 -39v-29h-12v29l-29 39l12 2l23 -31l18 29h15zM1343 -213h-12v31h-33v-31h-12v68h12v-27h33v27h12v-68zM1253 -168q0 -25 -34 -25v-20h-13v68q47 5 47 -23z
M1180 -213h-13l-8 16h-29l-6 -16h-12l31 70h4zM1094 -213h-15l-16 23h-10v-23h-13v68q47 5 47 -21q0 -13 -14 -20zM1006 -207q-12 -8 -27 -8t-26 10t-11 25t11 26t28 11q11 0 25 -9l-5 -10q-8 8 -22 8q-11 0 -18 -7t-7 -19q0 -10 8 -17.5t19 -7.5q4 0 12 4v15h-18v10h31v-31
zM915 -178q0 -15 -9.5 -26t-24.5 -11t-25 10.5t-10 24.5q0 16 10 26.5t27 10.5q13 0 22.5 -10.5t9.5 -24.5zM819 -168q0 -25 -35 -25v-20h-12v68q47 5 47 -23zM745 -145l-26 -39v-29h-12v29l-29 39l12 2l23 -31l18 29h14zM662 -145v-11h-25v-57h-12v57h-25v11h62zM547 -145
l-25 -70h-2l-22 47l-21 -47h-2l-24 70l12 2l14 -47l21 47h2l20 -47l15 45h12zM432 -145l-24 -70h-2l-23 47l-21 -47h-2l-24 70l12 2l14 -47l21 47h2l21 -47l14 45h12zM317 -145l-24 -70h-2l-23 47l-20 -47h-2l-25 70l12 2l15 -47l20 47h2l21 -47l14 45h12zM1466 -207
q0 -8 -8 -8t-8 8t8 8t8 -8zM582 -207q0 -8 -9 -8q-8 0 -8 8t8 8q9 0 9 -8zM1145 1405q0 17 -2 25q-6 -3 -35 -3q-28 0 -37 3l-2 -25h4q9 18 21 18q6 0 6 -6v-47q0 -5 -2.5 -7.5t-5.5 -2.5h-2v-4h34v4h-2q-3 -1 -5.5 2t-2.5 8v47q0 6 6 6t11.5 -4.5t7.5 -8.5l2 -5h4z
M1032 1356v4q-12 -2 -12 10v43q0 5 3 7.5t6 2.5h3v4h-37v-2v-2q11 2 11 -10v-18h-35v18q0 5 2.5 7.5t4.5 2.5h3v2v2h-35v-4l2 1q3 0 5.5 -3t2.5 -8v-43l-10 -10v-4h35v4q-10 0 -10 10v21h35v-21q0 -5 -3 -7.5t-5 -2.5h-3v-4h37zM899 1360h-3q-2 -1 -4.5 2t-2.5 8v43
q0 5 2.5 7.5t4.5 2.5h3v4h-59l-4 -20l4 -2q6 16 18 16h8q8 0 8 -6v-20h-8q-5 0 -8 2.5t-4 4.5v3h-4v-27h4q0 13 12 13h8v-23q0 -6 -8 -6h-8q-6 0 -11 4.5t-7 9.5l-2 4l-4 -2l4 -22h61v4zM1694 1266v12h-1403v-12h1403zM1425 1106q0 31 -23 54.5t-52 23.5q-17 0 -32 -11.5
t-15 -33.5q0 -32 22.5 -55t52.5 -23q17 0 32 11.5t15 33.5zM1206 1100q0 26 -28 35q10 7 10 18t-11 21t-32 10q-12 0 -19.5 -7t-7.5 -16q0 -12 10 -12q9 0 9 6q0 4 -3.5 6.5t-3.5 5.5q0 11 15 11q20 0 20 -25q0 -8 -4 -12q-33 4 -33 -13q0 -4 5.5 -8t11.5 -4q12 0 22 10
q13 -10 13 -30q0 -13 -7 -21t-18 -8q-10 0 -17.5 5t-7.5 13q0 7 7 7q1 0 4 -2.5t6 -2.5q8 0 8 11q0 10 -14 10q-7 0 -13 -6.5t-6 -14.5q0 -11 10 -18.5t23 -7.5q25 0 38 11.5t13 27.5zM604 1100q0 25 -29 35q11 7 11 18t-11 21t-32 10q-12 0 -19.5 -7t-7.5 -16q0 -12 10 -12
q9 0 9 6q0 4 -3.5 6.5t-3.5 5.5q0 11 15 11q20 0 20 -25q0 -8 -4 -12q-33 4 -33 -13q0 -4 5.5 -8t11.5 -4q12 0 22 10q13 -10 13 -30q0 -13 -7 -21t-18 -8q-10 0 -17.5 5t-7.5 13q0 7 7 7q1 0 4 -2.5t6 -2.5q8 0 8 11q0 10 -14 10q-7 0 -13 -6.5t-6 -14.5q0 -11 10 -18.5
t23 -7.5q25 0 38 11.5t13 27.5zM1679 1069q-16 -2 -20 16l-14 72q-2 8 1.5 12.5t7.5 4.5h5l-2 6h-58l3 -6q14 1 18 -17l6 -31h-49l-6 31q-2 8 1.5 12.5t7.5 4.5h5l-2 6h-59l2 -6q16 1 20 -17l15 -72q2 -8 -2 -12t-9 -4h-4l2 -6h60l-2 6q-17 -2 -21 16l-6 33h49l6 -33
q2 -8 -1.5 -12t-8.5 -4h-4l2 -6h59zM1020 1063l-2 6q-17 -2 -21 16l-14 72q-2 8 1.5 12.5t7.5 4.5h5l-2 6h-92v-35h8q0 3 0.5 7.5t7 11.5t19.5 7h8q10 0 12 -12l7 -33h-9q-8 0 -14 5t-8 9l-2 5h-6l10 -47h6q-2 22 16 22h9l6 -35q2 -8 -2 -12t-9 -4h-4l3 -6h59zM414 1069
q-17 -2 -21 16l-14 72q-2 8 1.5 12.5t7.5 4.5h5l-2 6h-55q-41 0 -41 -31q0 -12 11.5 -20.5t27.5 -10.5l-19 -33q-4 -8 -11 -12t-12 -4h-5l2 -6h39l24 47q3 6 10 6l7 -31q2 -8 -2 -12t-9 -4h-4l2 -6h60zM819 1067q0 5 -7 11t-19 7q-6 4 -9 21t-5 34t-13 30.5t-33 13.5
q-10 0 -18 -7t-8 -14q0 -10 10 -10q8 0 8 12q0 13 10 13q11 0 14.5 -16t8.5 -40t20 -37q-16 0 -29 -13t-18 -13q-10 0 -10 8q0 3 2 5.5t2 4.5q0 10 -10 10t-10 -14q0 -9 9.5 -16.5t20.5 -7.5q20 0 30.5 13t20.5 13q7 -14 25 -14q8 0 8 6zM1694 973v12h-1403v-12h1403z
M1694 774v127h-301v-127h73v57h23v-133h-29v-67h166v67h-29v133h23v-57h74zM1327 831v70h-166v-70h23l-31 -47l-31 47h21v70h-127v-70h24l76 -94v-39h-29v-67h166v67h-30v41l75 92h29zM938 631v67h-29v133h29v70h-197q-43 0 -69.5 -23.5t-26.5 -58.5q0 -36 26 -59t70 -23h62
v-39h-31v-67h166zM580 631v67h-29v133h29v70h-289v-127h84v57h67v-40h-49v-50h49v-43h-67v58h-84v-125h289zM1694 555v12h-1403v-12h1403zM1491 393q0 31 -23.5 54.5t-52.5 23.5q-17 0 -32 -11.5t-15 -33.5q0 -32 23 -55t53 -23q17 0 32 11.5t15 33.5zM416 444
q-15 27 -37 27q-32 0 -29 -47q-14 47 -43 47q-10 0 -17 -7t-7 -18l6 -2q0 13 16 13q33 0 49 -68q3 -17 0.5 -23.5t-7.5 -7.5h-5l2 -8h57l-2 8q-14 -4 -20 19q-10 33 -10 51q0 27 18 27q10 0 25 -15zM1686 350l-3 6q-16 -1 -20 17l-14 71q-2 8 1.5 12t7.5 4l5 1l-2 6h-92v-35
h8q0 3 0.5 7.5t7 12t19.5 7.5h8q9 0 12 -13l6 -32h-8q-8 0 -14 4.5t-8 9.5l-3 4h-6l11 -47h6q-2 23 16 23h8l6 -35q2 -8 -1.5 -12.5t-8.5 -4.5h-4l2 -6h60zM1272 461l-2 6h-60l2 -6q17 1 21 -19l10 -43q6 -20 2 -30.5t-24 -10.5q-30 0 -41 45l-9 39q-2 10 2 15t9 5l4 -1v6
h-49l2 -6q18 1 22 -19l8 -39q4 -21 18.5 -38t39.5 -17q22 0 32 8.5t9 19t-2 21.5l-11 45q-3 10 1.5 15t9.5 5zM1069 356q-12 1 -18 21l-15 65q-2 9 2.5 13.5t9.5 4.5l5 1l-2 6h-29l-59 -86l-11 61q-2 8 2 13t8 5l5 1l-2 6h-43l2 -6q14 -1 18 -19l16 -92l7 -2l61 90l12 -61
q2 -10 -1 -15.5t-7 -5.5h-4l2 -6h43zM848 350l-2 8q-15 -4 -21 19l-16 63q-6 18 16 21l-2 6h-61q-21 0 -36 -11.5t-15 -33.5q0 -31 21.5 -51.5t49.5 -20.5h66zM627 356q-17 -1 -21 17l-14 71q-2 8 1.5 12t8.5 4l4 1l-2 6h-55q-41 0 -41 -31q0 -12 11.5 -20t27.5 -10l-19 -33
q-4 -8 -11 -12.5t-12 -4.5h-5l2 -6h39l24 47q3 6 10 6l7 -30q2 -8 -2 -12.5t-8 -4.5h-5l2 -6h60zM1694 260v12h-1403v-12h1403zM1421 94v4q-12 3 -12 11v41q0 3 3 6t6 4l3 2v4h-20l-49 -53v37q0 4 3 7t6 4l3 1v4h-31v-4q13 -2 13 -12v-58h6l51 58v-41q0 -4 -2.5 -6.5
t-4.5 -3.5l-3 -1v-4h28zM1296 98h-2.5t-4.5 3t-3 8v43q0 5 2.5 7.5t5.5 2.5h2v4h-59l-4 -21l4 -2q6 17 18 17h9q8 0 8 -6v-21h-8q-5 0 -8.5 2.5t-3.5 4.5l-1 3h-4v-26h4q1 12 13 12h8v-23q0 -6 -8 -6h-9q-6 0 -11 5t-7 9l-2 5l-4 -2l4 -23h61v4zM1194 166h-31v-4q1 0 2 -0.5
t3 -3t-1 -6.5l-18 -39l-10 20l8 17q2 4 5 7t5 4l2 1v4h-53l2 -4q6 0 14 -12l6 -11l-14 -26l-16 37q-2 5 -1 7.5t3 3.5l2 1v4h-27v-4q8 -2 12 -12l27 -56h2q2 -2 2 0l17 33l18 -33h2l25 56q3 5 6.5 8t5.5 4h2v4zM983 162v4h-31v-4l2 -10l-12 -19l-12 19q-2 5 -1 7t4 3h3v4
h-31v-4q11 0 17 -10l16 -25v-16q0 -5 -2.5 -8.5t-5.5 -4.5h-2v-4h35v4q-11 1 -11 13v16l17 25q2 3 4 5t3.5 3t3 1.5t2.5 0.5h1zM870 131q0 16 -11 26.5t-30 10.5t-30 -10.5t-11 -26.5t11 -27.5t30 -11.5t30 11.5t11 27.5zM745 94v4q-10 1 -10 11v41q0 5 2.5 8t4.5 4h3v4h-36
q-12 0 -19.5 -5.5t-7.5 -13.5q0 -11 18 -18l-14 -20q-4 -4 -8 -7t-6 -4h-2v-4h22l15 25q6 8 14 8v-18q0 -4 -2.5 -7t-4.5 -4h-3v-4h34zM633 94v4q-12 3 -12 13v41l12 10v4h-37v-4q12 0 12 -10v-19q-4 0 -8 4l-16 17q-3 3 -2.5 5t2.5 3h2v4h-29v-4q10 -2 16 -8l21 -19
l-27 -26l-14 -11v-4h35v4q-1 0 -2.5 0.5t-4 3t2.5 7.5l16 16q4 4 8 4v-18q0 -5 -3 -8.5t-6 -4.5h-3v-4h37zM1241 -170q0 17 -22 14v-26q22 0 22 12zM1075 -168q0 16 -22 12v-24q22 -2 22 12zM807 -170q0 17 -23 14v-26q23 0 23 12zM1155 -188l-10 24l-10 -24h20zM1638 -180
q0 26 -22 26q-9 0 -16 -7t-7 -17q0 -12 7 -19.5t16 -7.5t15.5 7.5t6.5 17.5zM903 -180q0 26 -22 26q-9 0 -16 -7t-7 -17q0 -12 7 -19.5t16 -7.5t15.5 7.5t6.5 17.5zM360 1122h-10q-16 0 -23.5 10t-7.5 21q0 18 17 18q16 0 18 -10zM1159 1133q-6 -9 -14 -9t-8 4q0 7 8 7
q10 0 14 -2zM557 1133q-6 -9 -14 -9t-8 4q0 7 8 7q10 0 14 -2zM1401 1096q0 -27 -23 -27q-19 0 -35 24t-16 54q0 29 23 29q19 0 35 -24t16 -56zM803 786h-23q-26 0 -26 23q0 22 26 22h23v-45zM573 410h-10q-16 0 -23.5 9.5t-7.5 20.5q0 19 17 19q15 0 18 -10zM1466 383
q0 -27 -22 -27q-19 0 -35 24t-16 54q0 29 22 29q19 0 35 -24t16 -56zM805 373q0 -15 -8 -15h-11q-22 0 -37.5 20t-15.5 46q0 35 29 35h12q8 -2 12 -15zM1133 162q9 0 0 -19q-11 19 0 19zM721 131h-6q-17 0 -17 16q0 13 15 13q8 0 8 -8v-21zM854 131q0 -35 -25 -35
q-24 0 -24 35q0 33 24 33q25 0 25 -33z" />
    <glyph glyph-name="fi" unicode="&#xfb01;" horiz-adv-x="770" 
d="M559 1305v143h94v-143h-94zM152 0v995h-111v80h111v125q0 123 53.5 187.5t154.5 64.5q32 0 64 -8v-84q-32 8 -62 8q-124 0 -124 -170v-123h176v-80h-176v-995h-86zM563 0v1075h86v-1075h-86z" />
    <glyph glyph-name="fl" unicode="&#xfb02;" horiz-adv-x="770" 
d="M152 0v995h-111v80h111v125q0 123 53.5 187.5t154.5 64.5q32 0 64 -8v-84q-32 8 -62 8q-124 0 -124 -170v-123h176v-80h-176v-995h-86zM563 0v1448h86v-1448h-86z" />
    <glyph glyph-name="NUL" horiz-adv-x="0" 
 />
    </font>
</defs>
</svg>
